<?xml version="1.0" encoding="utf-8"?>
<!-- Generator: Adobe Illustrator 22.1.0, SVG Export Plug-In . SVG Version: 6.00 Build 0)  -->
<svg version="1.1" id="Layer_1" xmlns="http://www.w3.org/2000/svg" xmlns:xlink="http://www.w3.org/1999/xlink" x="0px" y="0px"
	 viewBox="0 0 1920 500" style="enable-background:new 0 0 1920 500;" xml:space="preserve">
<style type="text/css">
	.st0{display:none;}
	.st1{display:inline;}
	.st2{fill:#FFFFFF;stroke:#FFFFFF;stroke-miterlimit:10;}
	.st3{fill:#FFFFFF;}
	.st4{display:inline;fill:none;stroke:#000000;stroke-miterlimit:10;}
	.st5{display:inline;fill:#FFFFFF;stroke:#000000;stroke-miterlimit:10;}
	.st6{stroke:#000000;}
	.st7{fill:#1515FF;}
</style>
<g id="Layer_1_1_" class="st0">
	
		<image style="display:inline;overflow:visible;enable-background:new    ;" width="3841" height="2161" xlink:href="10B2852.jpeg"  transform="matrix(0.8886 0 0 0.8886 -1119.6544 -927)">
	</image>
</g>
<g id="Layer_2_1_" class="st0">
	<polygon class="st1" points="0,346 71,346 71,337 80,337 80,346 107,341 107,331 132,331 132,353 249,353 249,347 264,347 264,316 
		272,316 272,296 295,296 302,283 317,283 313,295 347,296 347,334 389,335 407,329 428,329 428,283 436,283 436,331 451,335 
		451,448 	"/>
	<polygon class="st1" points="473,344 437,344 473,390 	"/>
	<polygon class="st1" points="468,350 468,333 502,333 	"/>
	<polygon class="st1" points="526,329 526,312 576,312 576,375 576,390 431,390 485,336.2 502,333 502,325 559,325 	"/>
	<polygon class="st1" points="576,362.7 551,363 464.5,356.6 434,357 437,375 	"/>
	<polygon class="st1" points="576,312 576,296 620,296 620,312 635,312 635,333 661,333 661,351 661,365 564.8,363.6 	"/>
	<polygon class="st1" points="661,289 735,289 735,341.5 735,375 661,351 	"/>
	<polygon class="st1" points="735,238 745,227 745,198 795,198 795,226 807,238 807,333 807,357 735,357 	"/>
	<polygon class="st1" points="807,500 0,500 0,344 404,401 544,351 807,333 	"/>
</g>
<g id="Layer_9" class="st0">
	<g class="st1">
		<polygon class="st2" points="468.3,369.8 469.3,536.8 472.3,536.8 473.3,369.8 		"/>
		<polygon class="st2" points="787.3,272.8 787.3,234.8 736.3,234.8 736.3,269.8 736.3,326.8 658.3,326.8 658.3,369.8 634.3,369.8 
			634.3,352.8 618.3,352.8 618.3,286.8 573.3,286.8 573.3,352.8 527.3,352.8 527.3,369.8 473.3,369.8 472.3,536.8 806.3,536.8 
			806.3,369.8 806.3,272.8 		"/>
		<polygon class="st2" points="440.3,409.8 426.3,392.8 385.3,392.8 366.3,409.8 349.3,409.8 349.3,373.8 257.3,373.8 257.3,416.8 
			197.3,416.8 197.3,432.8 140.3,432.8 140.3,413.8 59.3,413.8 59.3,375.8 -0.8,375.8 -0.8,576.8 469.3,576.8 468.3,409.8 		"/>
		<path class="st2" d="M806.3,369.8"/>
		<g>
			<path class="st3" d="M806.8,371.3v165V371.3z"/>
			<polygon class="st3" points="807.3,370.8 806.3,370.8 806.3,536.8 807.3,536.8 807.3,372.8 			"/>
		</g>
		<g>
			<rect x="803.8" y="371.3" class="st3" width="3" height="2"/>
			<path class="st3" d="M806.3,371.8v1h-2v-1H806.3 M807.3,370.8h-4v3h4V370.8L807.3,370.8z"/>
		</g>
		<g>
			<polygon class="st3" points="808.3,372.8 806.3,372.8 806.3,372.8 			"/>
			<path class="st3" d="M808.3,372.8h-2H808.3z"/>
		</g>
		<g>
			<rect x="806.8" y="373.3" class="st3" width="1" height="3"/>
			<path class="st3" d="M807.3,373.8v2V373.8 M808.3,372.8h-2v4h2V372.8L808.3,372.8z"/>
		</g>
	</g>
	<g class="st1">
		<polygon class="st3" points="468.3,369.8 469.3,536.8 472.3,536.8 473.3,369.8 		"/>
		<polygon class="st3" points="787.3,272.8 787.3,234.8 736.3,234.8 736.3,269.8 736.3,326.8 658.3,326.8 658.3,369.8 634.3,369.8 
			634.3,352.8 618.3,352.8 618.3,286.8 573.3,286.8 573.3,352.8 527.3,352.8 527.3,369.8 473.3,369.8 472.3,536.8 806.3,536.8 
			806.3,369.8 806.3,272.8 		"/>
		<polygon class="st3" points="440.3,409.8 426.3,392.8 385.3,392.8 366.3,409.8 349.3,409.8 349.3,373.8 257.3,373.8 257.3,416.8 
			197.3,416.8 197.3,432.8 140.3,432.8 140.3,413.8 59.3,413.8 59.3,375.8 -0.8,375.8 -0.8,576.8 469.3,576.8 468.3,409.8 		"/>
		<path class="st3" d="M806.3,369.8"/>
		<g>
			<path class="st3" d="M806.8,371.3v165V371.3z"/>
			<polygon class="st3" points="807.3,370.8 806.3,370.8 806.3,536.8 807.3,536.8 807.3,372.8 			"/>
		</g>
		<g>
			<rect x="803.8" y="371.3" class="st3" width="3" height="2"/>
			<path class="st3" d="M806.3,371.8v1h-2v-1H806.3 M807.3,370.8h-4v3h4V370.8L807.3,370.8z"/>
		</g>
		<g>
			<polygon class="st3" points="808.3,372.8 806.3,372.8 806.3,372.8 			"/>
			<path class="st3" d="M808.3,372.8h-2H808.3z"/>
		</g>
		<g>
			<rect x="806.8" y="373.3" class="st3" width="1" height="3"/>
			<path class="st3" d="M807.3,373.8v2V373.8 M808.3,372.8h-2v4h2V372.8L808.3,372.8z"/>
		</g>
	</g>
</g>
<g id="Layer_3" class="st0">
	<path class="st1" d="M786,394c5.6-207.8,102.7-347.1,174-347c71.4,0.1,168.2,139.9,173,348L786,394z"/>
</g>
<g id="Layer_4" class="st0">
	<path class="st1" d="M812,394.1C816.8,210.2,900.2,86.9,961.4,87c61.3,0.1,144.5,123.8,148.6,308L812,394.1z"/>
</g>
<g id="Layer_5" class="st0">
	<path class="st1" d="M1020,42c-12.1-3.3-20.6-1.4-25,0c-5.4,1.8-11.2,6.2-23,15c-7.2,5.4-10.2,8.3-12,10c-2.3,2.2-6.5,6.7-11,13
		c-2,2.8-3.5,5.3-11,20c-5.2,10.2-7.8,15.2-10,20c-3.7,8-6.3,13.4-9,21c-2.3,6.3-3,9.5-6,20c-4.2,14.8-5.8,18.1-8,27
		c-1.4,5.9-2.4,10.8-3,14"/>
</g>
<g id="Layer_6" class="st0">
	<g class="st1">
		<g>
			<path class="st3" d="M-1706-2262c-36,0-72,0-108,0c0-205.7,0-411.3,0-617c819,0,1638,0,2457,0c0,205.7,0,411.3,0,617
				c-34,0-68,0-102,0c-0.1-2-0.4-4-0.4-5.9c0-22.7-0.2-45.3,0.1-68c0.1-4.8-1.5-6-6-5.8c-6.1,0.3-12.3,0.1-18.5,0.1
				c-7.9,0-7.9,0-9.6,7.4c-4.2,0-8.4,0-12.7,0c-0.2-2.5-0.3-4.7-0.4-7.1c-7.1,0-14.1,0-21.2,0c-0.2,2.5-0.5,4.8-0.7,7.1
				c-4.2,0-8.1,0-12.3,0c-0.2-4.7-0.4-9.1-0.6-13.4c-15.5,0-30.4,0-45.9,0c0,4.7,0,9.1,0,13.5c-4.1,0-7.5,0-11.2,0
				c-0.4-1.7-0.8-3.2-1.3-5.1c-4.4,0-8.5-0.1-12.6,0c-0.9,0-2.4,0.3-2.6,0.9c-2.1,5.8-5.6,3-9.4,2.1s-7.8-2.6-11.7,1.3
				c-1.6,1.7-5.8,0.8-8.7,1.1c-0.4-2.2-0.7-3.7-1.1-5.5c-6.2,0-12.2,0.2-18.1-0.1c-3.7-0.1-6.7,0.1-6.1,5.1c-1.8,0-3.3,0-4.7,0
				c-0.4-1.8-0.8-3.3-1.2-5c-2.9,0-5.6,0-8.2,0c-8.2,0-8.2,0-9.2-7.7c0-0.3-0.4-0.5-0.9-1.1c-9.7,0-19.7-0.5-29.7,0.1
				c-9.7,0.6-19.4-2.3-29.2,2.5c-4.6,2.3-11.4,0.4-17.9,0.4c0-8,0-15.6,0-23.9c-9.2,0-17.8,0-26.9,0c0-12.2,0-23.6,0-35
				c-14.7,0-28.7,0-43.4,0c0,7,0,13.5,0,20.2c-8,0-15.4,0-23.4,0c0-6.9,0-13.5,0-20.2c-4.9,0-9.1,0-13.9,0c0,11.8,0,23.3,0,34.7
				c-4.9,0-9.1,0-13.9,0c0-3.5,0-6.6,0-9.7c-6.5,0-12.4,0-18.5,0c-0.2,3.5-0.3,6.5-0.5,10.1c-14.2,0-28,0.1-41.8-0.2
				c-1,0-2.7-2.6-2.7-4c-0.2-10.3-0.1-20.7-0.1-31c0-17.7,0-35.3,0-53c0-1.9,0.9-4.8-2.6-4.8c-12,0-23.9,0-36.4,0
				c0,8.5,0,16.4,0,24.7c-2.3,0.1-4.1,0.4-5.9,0.2c-4.6-0.6-6.2,1.1-5.9,5.8c0.4,6.6,0.1,13.2,0.1,20.2c-5.6,0-10.4,0-15.7,0
				c0-37.7,0-75,0-113c-2.6,0-5,0.2-7.2-0.1c-1.3-0.2-3.3-1.1-3.4-1.9c-0.9-5.3-4.6-5.1-8.6-5c-7.1,0.1-14.2,0-22.1,0
				c0-13.6,0-26.3,0-39c-0.5,0-1,0-1.5,0c0,12.2,0,24.3,0,35.1c-3.1-1-5.9-2.5-8.6-2.6c-16.3-0.4-32.6-0.4-49-0.6
				c-2.9,0-5.9,0-9.1,0c0,2.4,0,4,0,5.7c0,1.6,0,3.2,0,5.1c-2.9,0-5.2,0-7.4,0c-6.3,0-7.5,1.2-7.5,7.5c0.1,25,0.2,50,0.2,75
				c0,1.9-0.2,3.8-0.3,6c-10.3,0-20.1,0-30.4,0c-0.4-6-0.7-11.8-1.1-17.6c-0.1-1.8-0.6-3.6-1.3-5.2c-0.9-2-3-3.8-3.2-5.8
				c-0.3-4-2.2-5.8-5.9-5.7c-3.8,0.1-4.9-2-5.2-5.2c-0.1-1.1-0.4-2.2-0.6-3.6c-1.6-0.2-3-0.5-4.8-0.8c-1.3-50.6-2.7-101-4-151.5
				c-1.4,27.2-2.3,54.4-3.1,81.7c-0.8,27.4-1.5,54.8-2.2,84.1c-3.6-1.6-5.9-3.2-8.4-3.6c-3.4-0.6-8.8-1.6-10.2,0.1
				c-2.1,2.6-4,2.9-6.6,2.9c-3.7,0-7.4-0.3-11,0.1c-4.5,0.4-6.1-1-6-5.7c0.3-12.3,0-24.7,0.2-37c0.1-4-0.9-6-5.2-5.4
				c-4,0.6-6.9-0.4-6.6-6.3c-5.2,3.1-12-3.4-15.4,4.8c-0.1,0.4-1.2,0.5-1.8,0.5c-3,0-5.9,0-9.1,0c-0.1-2-0.3-3.4-0.3-4.9
				c-0.1-18.2-0.1-36.3-0.3-54.5c-0.2-13.6,0.5-27.3-5.9-40.1c-1.4-2.8-2.5-4.2-5.7-4.1c-7.8,0.2-15.7-0.1-23.5,0.2
				c-4.1,0.2-6.7-1.1-9.1-4.5c-7.3-10.4-7.6-10.4-15.4,0c-2.5,3.2-5,4.7-9.2,4.5c-7.2-0.3-14.3,0.1-21.5-0.2c-3.4-0.1-5.1,1-6,4.3
				c-0.9,3.5-2.5,6.8-3.8,10.2c-0.8,2-2.1,4.1-2.2,6.1c-0.2,8.7-0.1,17.4-0.1,26c-1.4-1.5-1.9-3-2.3-4.6
				c-12.9-54.8-31.1-107.7-56.1-158.1c-16.7-33.6-36.7-64.7-64.3-90.8c-58.6-55.4-146-57.8-205.4-4.4
				c-29.2,26.3-50.4,58.6-67.8,93.8c-25.7,52.2-42.3,107.7-58.1,163.3c-6.2,21.9-11.5,44.1-17.3,66.1c-0.4,1.7-1.9,4.5-2.9,4.4
				c-4.5-0.1-9.4-0.1-13.5-1.9c-11.8-5-23.6-7.3-35.8-2.3c-3.3,1.4-6.2,3.8-9.3,5.7c-3.8,2.2-2.5,6.1-3.4,9.3c-0.8,3.2-3,6-3.9,9.2
				c-0.6,2.2-0.1,4.6,0,7c0,0.8,0.2,1.7,0,2.5c-0.3,1.2-0.6,2.7-1.5,3.5c-3.9,3.6-9.1,6.3-7.3,13.7c-5.6-3-9.8-6.5-14.6-7.6
				c-7.4-1.7-15.1-2.2-22.7-2.3c-19.8-0.3-39.7-0.1-59.5-0.1c-2,0-3.9,0-5.9,0c-0.3,2.2-0.5,3.8-0.7,5.6c-1.9,0.3-3.7,0.6-6.1,0.9
				c0,17.9,0,35.6,0,52.7c-16.2,4.7-32.7-3.1-48.6,5c0.7-34.7-0.9-68.5,1-101.9c-2.9-1-6.9-1.2-8.4-3.2c-1.6-2.1-0.8-5.9-1.1-9.6
				c-13.3,0-26.4-0.1-39.5,0.2c-0.9,0-2.4,2.4-2.5,3.8c-0.2,3-0.2,5.9-3.3,7.4c-2.2,1-4.7,1.5-7,2.1c0,32.5,0,65.3,0,98.8
				c-5.3-0.5-11,0.4-15.2-1.8c-6.3-3.1-11.9-2.9-18.2-1.4c-4.3,1-8.7,1.4-13.8,2.2c0-11.5,0-21.9,0-32.5c-34.7,0-68.8,0-103.6,0
				c0,10.8,0,21.4,0,32.5c-16.8,0-32.9,0-49.7,0c0,14.8,0,29,0,43.1c-6.9,0-13.2,0-19.9,0c0-10.4,0-20.3,0-30.3
				c-15.4-3.2-30.4-6.4-45.4-9.3c-6.5-1.3-13.3-3.5-19.6-2.7c-24.6,3.3-49,7.7-73.4,11.7c-1,0.2-2.9,0.8-2.9,1.2
				c0.2,4.5-3.9,3.1-6.5,4.4c0,7.6,0,15.2,0,23.2c-9.3,0-18.1,0-27.1,0c-0.3,2.9-0.6,5.3-0.9,7.9c-4,0-7.8,0-11.8,0
				c-0.2-2.7-0.5-5.1-0.7-7.6c-8.9,0-17.4,0-26.3,0c-0.2,4-0.5,7.8-0.7,12c-10.1,0-19.7,0-29.1,0c-0.4,2.2-0.7,3.8-1.1,5.8
				c-2.3,0-4.5,0.2-6.6,0c-5.9-0.6-11.8-1.5-17.8-2.2c-1.5-0.2-3,0.1-4.5-0.1c-1-0.2-2-0.8-2.7-1.6c-2.5-3.1-10.3-2.8-12.7,0.3
				c-2.1,2.6-4.8,4.9-8.7,2.9c-0.2-1.7-0.4-3.3-0.7-4.9c-3.9,0-7.5,0-11.1,0c-0.2,1.9-0.4,3.5-0.6,5.2c-1.8,0-3.3,0-5,0
				c-0.2-3.3-0.4-6.3-0.6-9.3c-3.1,0-5.9,0-9.1,0c0,2.2,0,4.2,0,6.2C-1705.9-2321.7-1705.9-2291.8-1706-2262z"/>
			<path d="M-1706-2262c0.1-29.8,0.1-59.7,0.2-89.5c0-2,0-3.9,0-6.2c3.2,0,6,0,9.1,0c0.2,3,0.4,6,0.6,9.3c1.7,0,3.2,0,5,0
				c0.2-1.7,0.4-3.3,0.6-5.2c3.7,0,7.2,0,11.1,0c0.2,1.6,0.4,3.2,0.7,4.9c3.9,2,6.6-0.2,8.7-2.9c2.5-3.1,10.2-3.4,12.7-0.3
				c0.6,0.8,1.7,1.4,2.7,1.6c1.4,0.3,3,0,4.5,0.1c5.9,0.7,11.8,1.5,17.8,2.2c2.1,0.2,4.3,0,6.6,0c0.4-2,0.7-3.6,1.1-5.8
				c9.4,0,19,0,29.1,0c0.3-4.3,0.5-8,0.7-12c8.9,0,17.4,0,26.3,0c0.2,2.5,0.4,4.9,0.7,7.6c4,0,7.8,0,11.8,0c0.3-2.6,0.6-5,0.9-7.9
				c9,0,17.7,0,27.1,0c0-8.1,0-15.7,0-23.2c2.6-1.3,6.6,0.1,6.5-4.4c0-0.4,1.8-1,2.9-1.2c24.5-4,48.9-8.4,73.4-11.7
				c6.3-0.8,13.1,1.4,19.6,2.7c15,2.9,30,6.2,45.4,9.3c0,10,0,19.9,0,30.3c6.7,0,12.9,0,19.9,0c0-14.1,0-28.3,0-43.1
				c16.8,0,32.9,0,49.7,0c0-11.1,0-21.6,0-32.5c34.8,0,68.9,0,103.6,0c0,10.6,0,21,0,32.5c5.1-0.8,9.5-1.2,13.8-2.2
				c6.3-1.5,12-1.7,18.2,1.4c4.2,2.1,10,1.3,15.2,1.8c0-33.5,0-66.3,0-98.8c2.3-0.7,4.8-1.1,7-2.1c3.1-1.4,3.1-4.4,3.3-7.4
				c0.1-1.4,1.6-3.7,2.5-3.8c13.1-0.2,26.3-0.2,39.5-0.2c0.3,3.6-0.4,7.5,1.1,9.6c1.5,2,5.5,2.2,8.4,3.2c-1.9,33.4-0.3,67.2-1,101.9
				c16-8.1,32.4-0.3,48.6-5c0-17.1,0-34.8,0-52.7c2.5-0.4,4.2-0.7,6.1-0.9c0.2-1.8,0.5-3.4,0.7-5.6c2,0,4,0,5.9,0
				c19.8,0,39.7-0.2,59.5,0.1c7.6,0.1,15.4,0.6,22.7,2.3c4.8,1.1,9.1,4.6,14.6,7.6c-1.9-7.4,3.4-10.1,7.3-13.7
				c0.8-0.8,1.1-2.3,1.5-3.5c0.2-0.8,0-1.7,0-2.5c0-2.3-0.6-4.8,0-7c0.9-3.2,3-6,3.9-9.2s-0.4-7.1,3.4-9.3c3.1-1.9,6-4.3,9.3-5.7
				c12.2-5,24-2.8,35.8,2.3c4,1.7,8.9,1.7,13.5,1.9c0.9,0,2.4-2.7,2.9-4.4c5.8-22,11.1-44.2,17.3-66.1
				c15.8-55.7,32.3-111.1,58.1-163.3c17.3-35.2,38.5-67.5,67.8-93.8c59.4-53.4,146.8-50.9,205.4,4.4c27.6,26.1,47.7,57.3,64.3,90.8
				c25,50.4,43.3,103.3,56.1,158.1c0.4,1.6,0.9,3.1,2.3,4.6c0-8.7-0.1-17.4,0.1-26c0.1-2.1,1.4-4.1,2.2-6.1
				c1.3-3.4,2.9-6.7,3.8-10.2c0.9-3.3,2.5-4.5,6-4.3c7.2,0.3,14.3-0.2,21.5,0.2c4.1,0.2,6.7-1.3,9.2-4.5c7.8-10.4,8.1-10.4,15.4,0
				c2.4,3.4,5,4.7,9.1,4.5c7.8-0.3,15.7,0.1,23.5-0.2c3.2-0.1,4.3,1.3,5.7,4.1c6.4,12.8,5.7,26.5,5.9,40.1
				c0.2,18.2,0.2,36.3,0.3,54.5c0,1.5,0.2,2.9,0.3,4.9c3.2,0,6.2,0,9.1,0c0.6,0,1.7-0.1,1.8-0.5c3.3-8.2,10.1-1.8,15.4-4.8
				c-0.3,6,2.6,7,6.6,6.3c4.3-0.7,5.3,1.3,5.2,5.4c-0.2,12.3,0.1,24.7-0.2,37c-0.1,4.8,1.5,6.1,6,5.7c3.6-0.3,7.3-0.1,11-0.1
				c2.6,0,4.4-0.3,6.6-2.9c1.4-1.7,6.7-0.6,10.2-0.1c2.5,0.4,4.9,2,8.4,3.6c0.8-29.3,1.4-56.7,2.2-84.1c0.8-27.2,1.7-54.5,3.1-81.7
				c1.3,50.4,2.7,100.8,4,151.5c1.8,0.3,3.2,0.5,4.8,0.8c0.2,1.3,0.5,2.4,0.6,3.6c0.3,3.2,1.4,5.3,5.2,5.2c3.7-0.1,5.6,1.7,5.9,5.7
				c0.2,2,2.3,3.8,3.2,5.8c0.7,1.6,1.1,3.4,1.3,5.2c0.5,5.8,0.8,11.6,1.1,17.6c10.3,0,20.1,0,30.4,0c0.1-2.1,0.3-4.1,0.3-6
				c-0.1-25-0.1-50-0.2-75c0-6.3,1.2-7.5,7.5-7.5c2.3,0,4.6,0,7.4,0c0-1.8,0-3.4,0-5.1c0-1.6,0-3.3,0-5.7c3.2,0,6.2,0,9.1,0
				c16.3,0.1,32.6,0.2,49,0.6c2.8,0.1,5.5,1.6,8.6,2.6c0-10.8,0-23,0-35.1c0.5,0,1,0,1.5,0c0,12.7,0,25.4,0,39c8,0,15,0.1,22.1,0
				c4-0.1,7.7-0.3,8.6,5c0.1,0.8,2.2,1.7,3.4,1.9c2.2,0.3,4.6,0.1,7.2,0.1c0,37.9,0,75.2,0,113c5.2,0,10.1,0,15.7,0
				c0-7,0.3-13.6-0.1-20.2c-0.3-4.7,1.3-6.4,5.9-5.8c1.7,0.2,3.6-0.1,5.9-0.2c0-8.3,0-16.2,0-24.7c12.5,0,24.5,0,36.4,0
				c3.6,0,2.6,2.8,2.6,4.8c0.1,17.7,0,35.3,0,53c0,10.3-0.1,20.7,0.1,31c0,1.4,1.7,4,2.7,4c13.8,0.3,27.6,0.2,41.8,0.2
				c0.2-3.6,0.3-6.7,0.5-10.1c6.1,0,12,0,18.5,0c0,3.1,0,6.2,0,9.7c4.8,0,9,0,13.9,0c0-11.4,0-22.8,0-34.7c4.8,0,9.1,0,13.9,0
				c0,6.7,0,13.3,0,20.2c8,0,15.5,0,23.4,0c0-6.7,0-13.3,0-20.2c14.6,0,28.7,0,43.4,0c0,11.4,0,22.9,0,35c9.1,0,17.6,0,26.9,0
				c0,8.3,0,15.9,0,23.9c6.5,0,13.3,1.9,17.9-0.4c9.8-4.9,19.5-1.9,29.2-2.5c9.9-0.7,20-0.1,29.7-0.1c0.5,0.6,0.8,0.8,0.9,1.1
				c1,7.7,1,7.7,9.2,7.7c2.7,0,5.3,0,8.2,0c0.4,1.7,0.8,3.3,1.2,5c1.5,0,2.9,0,4.7,0c-0.7-5,2.3-5.2,6.1-5.1
				c6,0.2,11.9,0.1,18.1,0.1c0.3,1.8,0.6,3.2,1.1,5.5c2.9-0.3,7.1,0.5,8.7-1.1c3.9-4,7.9-2.2,11.7-1.3c3.7,0.9,7.2,3.8,9.4-2.1
				c0.2-0.6,1.7-0.9,2.6-0.9c4.1-0.1,8.3,0,12.6,0c0.5,1.9,0.8,3.4,1.3,5.1c3.7,0,7.1,0,11.2,0c0-4.4,0-8.8,0-13.5
				c15.5,0,30.4,0,45.9,0c0.2,4.3,0.4,8.7,0.6,13.4c4.2,0,8.1,0,12.3,0c0.2-2.4,0.4-4.6,0.7-7.1c7.1,0,14,0,21.2,0
				c0.2,2.4,0.3,4.5,0.4,7.1c4.2,0,8.4,0,12.7,0c1.7-7.4,1.7-7.4,9.6-7.4c6.2,0,12.3,0.3,18.5-0.1c4.5-0.3,6,1,6,5.8
				c-0.3,22.7-0.1,45.3-0.1,68c0,2,0.2,4,0.4,5.9C-208-2262-957-2262-1706-2262z M-563.2-2420.3c0-2.7-0.2-5.3,0-7.9
				c0.7-6.3-2.5-13.4,3.6-18.7c0.6-0.5,0.3-2.2,0.3-3.4c0-3-0.2-6,0.1-9c0.1-1.4,1.3-2.7,1.9-4.1c1-2,2.8-4.1,2.8-6.1
				c0.2-16.2,0.1-32.3,0.1-48.5c0-1.9,0.2-3.8,0.3-5.7c2.8-0.2,4.9-0.4,7.4-0.6c0.2-3.8,0.4-7.3,0.6-10.9c2.1-0.3,3.7-0.6,5.6-0.9
				c0.2-2.9,0.4-5.6,0.5-8.5c7.2,0,14,0,21,0c0.2,2.7,0.4,4.9,0.6,7.5c2.3,0.1,4.4,0.3,6.8,0.4c0.2,3.5,0.4,6.7,0.5,10
				c2.6,0.3,4.7,0.6,7.4,0.9c0,13.2,0,26.3,0,39.5c7.5,0,14.4,0,21.7,0c0-3.3,0-6.2,0-9.4c2.8-0.2,5.2-0.4,7.6-0.5
				c0.2-3.2,0.3-5.8,0.5-9.1c19,0,37.7,0,57,0c-0.2-3-0.1-5.3-0.5-7.5c-3.2-20.4-5.7-40.9-9.9-61c-10.9-52.5-24.9-104.1-46.7-153.4
				c-15.4-34.8-33.6-67.4-60.9-94.7c-43.3-43.2-103.9-45.4-148-18.1c-22.1,13.7-37.9,33.3-52.3,54.3
				c-22.2,32.5-36.4,68.6-48.2,105.9c-16.1,51-28.4,102.9-39,155.2c-1.8,8.8-3.5,17.5-5.3,26.5c2.3,0.6,4,1.1,6.4,1.7
				c0,6.4,0,12.8,0,19.1c2.8,0,4.8,0,7.1,0c0.2-2.3,0.3-4.2,0.5-6.7c7,0,13.7,0,20.8,0c0-8.9,0-17.2,0-25.3c2.6-1.5,6.9,1,7.1-3.9
				c1.1,0.4,2.2,0.6,3.2,1.1c0.8,0.5,1.5,1.4,2.2,2.1c0.7-0.7,1.6-1.4,2.1-2.3c0.5-0.8,0.6-1.7,1.2-3.3c3.4,6.9,13.7,7.4,17.3,2.9
				c0.5-0.7,3.3-0.7,3.4-0.4c1.7,4.5,3.3,4.8,5.4,0.3c0.3-0.6,2.2-0.4,3.3-0.5c0.4,5.4,5.3,2.3,7.8,4.1c0.1,0.9,0.2,1.9,0.3,2.9
				c1.6,35.4-3.5,71,3.2,106.2c1,5.1,3.4,7.5,8.5,6.3c1-0.2,2.2-0.1,3.2,0.1c5.7,1.2,11.9,1.5,15.3,7.4c0.2,0.3,0.9,0.4,1.4,0.4
				c11.4,0,22.8,0,34.8,0c0-3.2,0-5,0-6.8c-0.1-11.3,0.1-22.7-0.3-34c-0.2-5.4,2.8-8.9,6.6-10.8c5.9-3,8.8-7.4,10.2-13.7
				c1.6,0,3.3,0,5.3,0c-0.6,3.8,0.9,5.8,4.2,7.1c1.4,0.6,2.6,2.6,3.1,4.3c1,2.9,12.8,7.3,14.9,5.3c0.5-0.4,0.9-1.1,1-1.7
				c1.1-5.4,2.5-10.7,3-16.1c0.5-5.3,0.1-10.7,0.1-16c0-0.9,0.4-1.9,0.7-2.8c1.2,6.8,1.1,13.4,1.2,20c0,1.6,0.5,3.2,1,4.7
				c0.7,2.1,2.3,4.2,2.5,6.3c0.4,5.8,2.2,7.6,8,7c4.2-0.5,8.5-0.6,13.5-0.9c0,15.8,0,30.8,0,47.7c4.1-1.7,6.9-3.3,9.9-4.1
				c2-0.5,5.5-0.9,6.1,0.1c2.8,4.3,6.7,2.2,10.9,3c0-11,0-21.5,0-32.2C-568.2-2419.9-566.1-2420-563.2-2420.3z"/>
			<path class="st3" d="M-563.2-2420.3c-2.9,0.2-5,0.4-7.9,0.7c0,10.7,0,21.2,0,32.2c-4.2-0.8-8.1,1.3-10.9-3
				c-0.7-1-4.2-0.7-6.1-0.1c-3,0.8-5.8,2.4-9.9,4.1c0-16.9,0-31.9,0-47.7c-4.9,0.3-9.2,0.5-13.5,0.9c-5.8,0.6-7.6-1.1-8-7
				c-0.1-2.2-1.7-4.2-2.5-6.3c-0.5-1.5-1-3.1-1-4.7c-0.1-6.6,0-13.2-1.2-20c-0.2,0.9-0.7,1.9-0.7,2.8c-0.1,5.3,0.4,10.7-0.1,16
				c-0.5,5.4-1.9,10.7-3,16.1c-0.1,0.6-0.5,1.3-1,1.7c-2.1,2-13.9-2.5-14.9-5.3c-0.5-1.6-1.7-3.7-3.1-4.3c-3.3-1.3-4.8-3.3-4.2-7.1
				c-2,0-3.7,0-5.3,0c-1.4,6.3-4.3,10.8-10.2,13.7c-3.8,1.9-6.8,5.4-6.6,10.8c0.4,11.3,0.3,22.7,0.3,34c0,1.8,0,3.6,0,6.8
				c-11.9,0-23.3,0-34.8,0c-0.5,0-1.2-0.1-1.4-0.4c-3.5-5.9-9.6-6.2-15.3-7.4c-1-0.2-2.2-0.4-3.2-0.1c-5.1,1.2-7.5-1.2-8.5-6.3
				c-6.7-35.3-1.6-70.8-3.2-106.2c0-1-0.2-1.9-0.3-2.9c-2.6-1.7-7.4,1.3-7.8-4.1c-1.1,0.2-3,0-3.3,0.5c-2.2,4.5-3.7,4.3-5.4-0.3
				c-0.1-0.3-2.9-0.3-3.4,0.4c-3.6,4.5-13.9,4-17.3-2.9c-0.5,1.6-0.7,2.6-1.2,3.3c-0.5,0.9-1.4,1.5-2.1,2.3
				c-0.7-0.7-1.3-1.6-2.2-2.1c-1-0.6-2.1-0.8-3.2-1.1c-0.1,4.9-4.5,2.4-7.1,3.9c0,8.1,0,16.4,0,25.3c-7.1,0-13.8,0-20.8,0
				c-0.2,2.5-0.4,4.4-0.5,6.7c-2.2,0-4.3,0-7.1,0c0-6.4,0-12.8,0-19.1c-2.3-0.6-4.1-1.1-6.4-1.7c1.8-8.9,3.6-17.7,5.3-26.5
				c10.7-52.3,22.9-104.3,39-155.2c11.8-37.3,26-73.4,48.2-105.9c14.3-21,30.2-40.6,52.3-54.3c44.2-27.3,104.8-25.1,148,18.1
				c27.3,27.3,45.5,59.9,60.9,94.7c21.8,49.3,35.7,100.9,46.7,153.4c4.2,20.2,6.7,40.7,9.9,61c0.4,2.3,0.3,4.6,0.5,7.5
				c-19.3,0-38,0-57,0c-0.2,3.3-0.3,5.9-0.5,9.1c-2.4,0.2-4.8,0.3-7.6,0.5c0,3.2,0,6.1,0,9.4c-7.3,0-14.2,0-21.7,0
				c0-13.2,0-26.3,0-39.5c-2.7-0.3-4.8-0.6-7.4-0.9c-0.2-3.3-0.3-6.5-0.5-10c-2.4-0.1-4.5-0.3-6.8-0.4c-0.2-2.6-0.4-4.8-0.6-7.5
				c-7,0-13.9,0-21,0c-0.2,2.9-0.4,5.6-0.5,8.5c-1.9,0.3-3.5,0.5-5.6,0.9c-0.2,3.6-0.4,7.1-0.6,10.9c-2.5,0.2-4.6,0.4-7.4,0.6
				c-0.1,1.8-0.3,3.8-0.3,5.7c0,16.2,0.1,32.3-0.1,48.5c0,2.1-1.8,4.1-2.8,6.1c-0.7,1.4-1.8,2.7-1.9,4.1c-0.3,3-0.1,6-0.1,9
				c0,1.2,0.3,2.9-0.3,3.4c-6.1,5.3-3,12.4-3.6,18.7C-563.4-2425.6-563.2-2423-563.2-2420.3z"/>
		</g>
	</g>
	<path class="st4" d="M-828.5-2498.5c193.5-61.6,265.1-254.5,210-360c-44.6-85.3-182.9-134.2-324-89"/>
</g>
<g id="Layer_7" class="st0">
	<polyline class="st5" points="1153.5,214.5 1153.5,47.5 1182.5,37.5 	"/>
</g>
<g id="Layer_8" class="st0">
	<g class="st1">
		<polygon class="st2" points="1439.8,333.3 1428.3,333.3 1426.7,530.6 1428.3,333.3 1413.8,333.3 1413.8,288.3 1330.8,288.3 
			1330.8,379.3 1311.8,379.3 1311.8,305.3 1285.8,305.3 1285.8,169.3 1197.8,169.3 1197.8,320.3 1173.8,320.3 1173.8,287.3 
			1152.8,287.3 1152.8,212.3 1125.8,195.3 1095.8,215.3 1095.8,320.3 1076.8,320.3 1076.8,387.3 1047.8,387.3 1047.8,326.3 
			1021.8,322.3 1021.8,288.3 1002.8,288.3 1002.8,333.3 981.8,333.3 981.8,381.3 960.8,381.3 960.8,349.3 928.8,349.3 928.8,264.3 
			879.8,264.3 879.8,298.3 860.8,298.3 860.8,370.3 835.8,360.3 806.8,370.3 806.8,537.3 1447.4,537.3 		"/>
		<polyline class="st2" points="1439.8,431.3 1439.8,376.3 1477.8,376.3 1477.8,405.3 1498.8,405.3 1498.8,355.3 1518.8,355.3 
			1531.8,315.3 1584.8,315.3 1593.8,350.3 1593.8,386.3 1710.8,386.3 1710.8,447.3 1757.8,447.3 1824.8,447.3 1824.8,424.3 
			1878.8,424.3 1878.8,477.3 1920.8,477.3 1920.8,635.3 1447.4,635.3 		"/>
	</g>
	<g class="st1">
		<polygon class="st3" points="1439.8,333.3 1428.3,333.3 1426.7,530.6 1428.3,333.3 1413.8,333.3 1413.8,288.3 1330.8,288.3 
			1330.8,379.3 1311.8,379.3 1311.8,305.3 1285.8,305.3 1285.8,169.3 1197.8,169.3 1197.8,320.3 1173.8,320.3 1173.8,287.3 
			1152.8,287.3 1152.8,212.3 1125.8,195.3 1095.8,215.3 1095.8,320.3 1076.8,320.3 1076.8,387.3 1047.8,387.3 1047.8,326.3 
			1021.8,322.3 1021.8,288.3 1002.8,288.3 1002.8,333.3 981.8,333.3 981.8,381.3 960.8,381.3 960.8,349.3 928.8,349.3 928.8,264.3 
			879.8,264.3 879.8,298.3 860.8,298.3 860.8,370.3 835.8,360.3 806.8,370.3 806.8,537.3 1447.4,537.3 		"/>
		<polyline class="st3" points="1439.8,431.3 1439.8,376.3 1477.8,376.3 1477.8,405.3 1498.8,405.3 1498.8,355.3 1518.8,355.3 
			1531.8,315.3 1584.8,315.3 1593.8,350.3 1593.8,386.3 1710.8,386.3 1710.8,447.3 1757.8,447.3 1824.8,447.3 1824.8,424.3 
			1878.8,424.3 1878.8,477.3 1920.8,477.3 1920.8,635.3 1447.4,635.3 		"/>
	</g>
</g>
<g id="Layer_11" class="st0">
</g>
<g id="Layer_10" class="st0">
</g>
<g id="Page-1">
	<g>
		<g id="skyline-tracing_6_" transform="translate(-1812.000000, -2842.000000)">
			<g>
				<g id="Layer_9_14_" transform="translate(1813.000000, 3199.000000)">
					<polygon id="Path_116_" class="st6" points="468.1,19 469.1,186 472.1,186 473.1,19 					"/>
					<polygon id="Path_115_" class="st6" points="787.1,-78 787.1,-116 736.1,-116 736.1,-81 736.1,-24 658.1,-24 658.1,19 
						634.1,19 634.1,2 618.1,2 618.1,-64 573.1,-64 573.1,2 527.1,2 527.1,19 473.1,19 472.1,186 806.1,186 806.1,19 806.1,-78 
											"/>
					<polygon id="Path_114_" class="st6" points="440.1,59 426.1,42 385.1,42 366.1,59 349.1,59 349.1,23 257.1,23 257.1,66 
						197.1,66 197.1,82 140.1,82 140.1,63 59.1,63 59.1,25 -1,25 -1,226 469.1,226 468.1,59 					"/>
					<g id="Group_51_" transform="translate(807.000000, 136.000000)">
						<path id="Path_113_" d="M-0.4-115.5v165V-115.5z"/>
						<polygon id="Path_112_" points="0.1,-116 -0.9,-116 -0.9,50 0.1,50 0.1,-114 						"/>
					</g>
					<g id="Group_50_" transform="translate(804.000000, 136.000000)">
						<rect id="Rectangle_25_" x="-0.4" y="-115.5" width="3" height="2"/>
						<path id="Shape_25_" d="M2.1-115v1h-2v-1H2.1L2.1-115z M3.1-116h-4v3h4V-116L3.1-116z"/>
					</g>
					<g id="Group_49_" transform="translate(807.000000, 138.000000)">
						<polygon id="Path_111_" points="1.1,-116 -0.9,-116 -0.9,-116 						"/>
						<path id="Path_110_" d="M1.1-116h-2H1.1z"/>
					</g>
					<g id="Group_48_" transform="translate(807.000000, 138.000000)">
						<rect id="Rectangle_24_" x="-0.4" y="-115.5" width="1" height="3"/>
						<path id="Shape_24_" d="M0.1-115v2V-115L0.1-115z M1.1-116h-2v4h2V-116L1.1-116z"/>
					</g>
				</g>
				<g id="Layer_8_14_" transform="translate(2620.000000, 3134.000000)">
					<polygon id="Path_109_" class="st6" points="632.6,47.5 621.1,47.5 619.5,244.8 621.1,47.5 606.6,47.5 606.6,2.5 523.6,2.5 
						523.6,93.5 504.6,93.5 504.6,19.5 478.6,19.5 478.6,-116.5 390.6,-116.5 390.6,34.5 366.6,34.5 366.6,1.5 345.6,1.5 
						345.6,-73.5 318.6,-90.5 288.6,-70.5 288.6,34.5 269.6,34.5 269.6,101.5 240.6,101.5 240.6,40.5 214.6,36.5 214.6,2.5 
						195.6,2.5 195.6,47.5 174.6,47.5 174.6,95.5 153.6,95.5 153.6,63.5 121.6,63.5 121.6,-21.5 72.6,-21.5 72.6,12.5 53.6,12.5 
						53.6,84.5 28.6,74.5 -0.4,84.5 -0.4,251.5 640.2,251.5 					"/>
					<polyline id="Path_108_" class="st6" points="632.6,145.5 632.6,90.5 670.6,90.5 670.6,119.5 691.6,119.5 691.6,69.5 
						711.6,69.5 724.6,29.5 777.6,29.5 786.6,64.5 786.6,100.5 903.6,100.5 903.6,161.5 950.6,161.5 1017.6,161.5 1017.6,138.5 
						1071.6,138.5 1071.6,191.5 1113.6,191.5 1113.6,349.5 640.2,349.5 					"/>
				</g>
				<path id="path0_12_" d="M2510.7,3120.9c-20.9,60.5-57.9,194.6-57.9,209.7v8.4h28.4c18,0,20.5,2.6,21.1,0
					c0.4-1.6,4.6-27.2,9.4-49.9c57.5-274.1,121.4-392.8,226.2-419.9c120.4-31.3,218.1,78,277.2,310.3c12.8,50.4,21.9,94,24.3,116.9
					c1.1,10.8,2.4,21.9,2.8,24.6l0.8,4.9v20.9l45.9,1.4l-7.8-84.3c-4.2-21-8.6-40.5-13.3-58.6c-63.2-245.2-177.2-374.5-316.1-358.8
					C2650.1,2857.9,2569.8,2949.4,2510.7,3120.9z"/>
			</g>
			<g>
				<g id="Layer_9_13_" transform="translate(1813.000000, 3199.000000)">
					<polygon id="Path_107_" class="st7" points="468.1,19 469.1,186 472.1,186 473.1,19 					"/>
					<polygon id="Path_106_" class="st7" points="787.1,-78 787.1,-116 736.1,-116 736.1,-81 736.1,-24 658.1,-24 658.1,19 
						634.1,19 634.1,2 618.1,2 618.1,-64 573.1,-64 573.1,2 527.1,2 527.1,19 473.1,19 472.1,186 806.1,186 806.1,19 806.1,-78 
											"/>
					<polygon id="Path_105_" class="st7" points="440.1,59 426.1,42 385.1,42 366.1,59 349.1,59 349.1,23 257.1,23 257.1,66 
						197.1,66 197.1,82 140.1,82 140.1,63 59.1,63 59.1,25 -1,25 -1,226 469.1,226 468.1,59 					"/>
					<g id="Group_47_" transform="translate(807.000000, 136.000000)">
						<path id="Path_104_" class="st7" d="M-0.4-115.5v165V-115.5z"/>
						<polygon id="Path_103_" class="st7" points="0.1,-116 -0.9,-116 -0.9,50 0.1,50 0.1,-114 						"/>
					</g>
					<g id="Group_46_" transform="translate(804.000000, 136.000000)">
						<rect id="Rectangle_23_" x="-0.4" y="-115.5" class="st7" width="3" height="2"/>
						<path id="Shape_23_" class="st7" d="M2.1-115v1h-2v-1H2.1L2.1-115z M3.1-116h-4v3h4V-116L3.1-116z"/>
					</g>
					<g id="Group_45_" transform="translate(807.000000, 138.000000)">
						<polygon id="Path_102_" class="st7" points="1.1,-116 -0.9,-116 -0.9,-116 						"/>
						<path id="Path_101_" class="st7" d="M1.1-116h-2H1.1z"/>
					</g>
					<g id="Group_44_" transform="translate(807.000000, 138.000000)">
						<rect id="Rectangle_22_" x="-0.4" y="-115.5" class="st7" width="1" height="3"/>
						<path id="Shape_22_" class="st7" d="M0.1-115v2V-115L0.1-115z M1.1-116h-2v4h2V-116L1.1-116z"/>
					</g>
				</g>
				<g id="Layer_8_13_" transform="translate(2620.000000, 3134.000000)">
					<polygon id="Path_100_" class="st7" points="632.6,47.5 621.1,47.5 619.5,244.8 621.1,47.5 606.6,47.5 606.6,2.5 523.6,2.5 
						523.6,93.5 504.6,93.5 504.6,19.5 478.6,19.5 478.6,-116.5 390.6,-116.5 390.6,34.5 366.6,34.5 366.6,1.5 345.6,1.5 
						345.6,-73.5 318.6,-90.5 288.6,-70.5 288.6,34.5 269.6,34.5 269.6,101.5 240.6,101.5 240.6,40.5 214.6,36.5 214.6,2.5 
						195.6,2.5 195.6,47.5 174.6,47.5 174.6,95.5 153.6,95.5 153.6,63.5 121.6,63.5 121.6,-21.5 72.6,-21.5 72.6,12.5 53.6,12.5 
						53.6,84.5 28.6,74.5 -0.4,84.5 -0.4,251.5 640.2,251.5 					"/>
					<polyline id="Path_99_" class="st7" points="632.6,145.5 632.6,90.5 670.6,90.5 670.6,119.5 691.6,119.5 691.6,69.5 
						711.6,69.5 724.6,29.5 777.6,29.5 786.6,64.5 786.6,100.5 903.6,100.5 903.6,161.5 950.6,161.5 1017.6,161.5 1017.6,138.5 
						1071.6,138.5 1071.6,191.5 1113.6,191.5 1113.6,349.5 640.2,349.5 					"/>
				</g>
				<path id="path0_11_" class="st7" d="M2510.7,3120.9c-20.9,60.5-57.9,194.6-57.9,209.7v8.4h28.4c18,0,20.5,2.6,21.1,0
					c0.4-1.6,4.6-27.2,9.4-49.9c57.5-274.1,121.4-392.8,226.2-419.9c120.4-31.3,218.1,78,277.2,310.3c12.8,50.4,21.9,94,24.3,116.9
					c1.1,10.8,2.4,21.9,2.8,24.6l0.8,4.9v20.9l45.9,1.4l-7.8-84.3c-4.2-21-8.6-40.5-13.3-58.6c-63.2-245.2-177.2-374.5-316.1-358.8
					C2650.1,2857.9,2569.8,2949.4,2510.7,3120.9z"/>
			</g>
		</g>
	</g>
	<g>
		<g id="skyline-tracing_5_" transform="translate(-1812.000000, -2842.000000)">
			<g>
				<g id="Layer_9_12_" transform="translate(1813.000000, 3199.000000)">
					<polygon id="Path_98_" class="st3" points="468.1,19 469.1,186 472.1,186 473.1,19 					"/>
					<polygon id="Path_97_" class="st3" points="787.1,-78 787.1,-116 736.1,-116 736.1,-81 736.1,-24 658.1,-24 658.1,19 634.1,19 
						634.1,2 618.1,2 618.1,-64 573.1,-64 573.1,2 527.1,2 527.1,19 473.1,19 472.1,186 806.1,186 806.1,19 806.1,-78 					"/>
					<polygon id="Path_96_" class="st3" points="440.1,59 426.1,42 385.1,42 366.1,59 349.1,59 349.1,23 257.1,23 257.1,66 
						197.1,66 197.1,82 140.1,82 140.1,63 59.1,63 59.1,25 -1,25 -1,226 469.1,226 468.1,59 					"/>
					<g id="Group_43_" transform="translate(807.000000, 136.000000)">
						<path id="Path_95_" class="st3" d="M-0.4-115.5v165V-115.5z"/>
						<polygon id="Path_94_" class="st3" points="0.1,-116 -0.9,-116 -0.9,50 0.1,50 0.1,-114 						"/>
					</g>
					<g id="Group_42_" transform="translate(804.000000, 136.000000)">
						<rect id="Rectangle_21_" x="-0.4" y="-115.5" class="st3" width="3" height="2"/>
						<path id="Shape_21_" class="st3" d="M2.1-115v1h-2v-1H2.1L2.1-115z M3.1-116h-4v3h4V-116L3.1-116z"/>
					</g>
					<g id="Group_41_" transform="translate(807.000000, 138.000000)">
						<polygon id="Path_93_" class="st3" points="1.1,-116 -0.9,-116 -0.9,-116 						"/>
						<path id="Path_92_" class="st3" d="M1.1-116h-2H1.1z"/>
					</g>
					<g id="Group_40_" transform="translate(807.000000, 138.000000)">
						<rect id="Rectangle_20_" x="-0.4" y="-115.5" class="st3" width="1" height="3"/>
						<path id="Shape_20_" class="st3" d="M0.1-115v2V-115L0.1-115z M1.1-116h-2v4h2V-116L1.1-116z"/>
					</g>
				</g>
				<g id="Layer_8_12_" transform="translate(2620.000000, 3134.000000)">
					<polygon id="Path_91_" class="st3" points="632.6,47.5 621.1,47.5 619.5,244.8 621.1,47.5 606.6,47.5 606.6,2.5 523.6,2.5 
						523.6,93.5 504.6,93.5 504.6,19.5 478.6,19.5 478.6,-116.5 390.6,-116.5 390.6,34.5 366.6,34.5 366.6,1.5 345.6,1.5 
						345.6,-73.5 318.6,-90.5 288.6,-70.5 288.6,34.5 269.6,34.5 269.6,101.5 240.6,101.5 240.6,40.5 214.6,36.5 214.6,2.5 
						195.6,2.5 195.6,47.5 174.6,47.5 174.6,95.5 153.6,95.5 153.6,63.5 121.6,63.5 121.6,-21.5 72.6,-21.5 72.6,12.5 53.6,12.5 
						53.6,84.5 28.6,74.5 -0.4,84.5 -0.4,251.5 640.2,251.5 					"/>
					<polyline id="Path_90_" class="st3" points="632.6,145.5 632.6,90.5 670.6,90.5 670.6,119.5 691.6,119.5 691.6,69.5 
						711.6,69.5 724.6,29.5 777.6,29.5 786.6,64.5 786.6,100.5 903.6,100.5 903.6,161.5 950.6,161.5 1017.6,161.5 1017.6,138.5 
						1071.6,138.5 1071.6,191.5 1113.6,191.5 1113.6,349.5 640.2,349.5 					"/>
				</g>
				<path id="path0_10_" class="st3" d="M2510.7,3120.9c-20.9,60.5-57.9,194.6-57.9,209.7v8.4h28.4c18,0,20.5,2.6,21.1,0
					c0.4-1.6,4.6-27.2,9.4-49.9c57.5-274.1,121.4-392.8,226.2-419.9c120.4-31.3,218.1,78,277.2,310.3c12.8,50.4,21.9,94,24.3,116.9
					c1.1,10.8,2.4,21.9,2.8,24.6l0.8,4.9v20.9l45.9,1.4l-7.8-84.3c-4.2-21-8.6-40.5-13.3-58.6c-63.2-245.2-177.2-374.5-316.1-358.8
					C2650.1,2857.9,2569.8,2949.4,2510.7,3120.9z"/>
			</g>
			<g>
				<g id="Layer_9_11_" transform="translate(1813.000000, 3199.000000)">
					<polygon id="Path_89_" class="st3" points="468.1,19 469.1,186 472.1,186 473.1,19 					"/>
					<polygon id="Path_88_" class="st3" points="787.1,-78 787.1,-116 736.1,-116 736.1,-81 736.1,-24 658.1,-24 658.1,19 634.1,19 
						634.1,2 618.1,2 618.1,-64 573.1,-64 573.1,2 527.1,2 527.1,19 473.1,19 472.1,186 806.1,186 806.1,19 806.1,-78 					"/>
					<polygon id="Path_87_" class="st3" points="440.1,59 426.1,42 385.1,42 366.1,59 349.1,59 349.1,23 257.1,23 257.1,66 
						197.1,66 197.1,82 140.1,82 140.1,63 59.1,63 59.1,25 -1,25 -1,226 469.1,226 468.1,59 					"/>
					<g id="Group_39_" transform="translate(807.000000, 136.000000)">
						<path id="Path_86_" class="st3" d="M-0.4-115.5v165V-115.5z"/>
						<polygon id="Path_85_" class="st3" points="0.1,-116 -0.9,-116 -0.9,50 0.1,50 0.1,-114 						"/>
					</g>
					<g id="Group_38_" transform="translate(804.000000, 136.000000)">
						<rect id="Rectangle_19_" x="-0.4" y="-115.5" class="st3" width="3" height="2"/>
						<path id="Shape_19_" class="st3" d="M2.1-115v1h-2v-1H2.1L2.1-115z M3.1-116h-4v3h4V-116L3.1-116z"/>
					</g>
					<g id="Group_37_" transform="translate(807.000000, 138.000000)">
						<polygon id="Path_84_" class="st3" points="1.1,-116 -0.9,-116 -0.9,-116 						"/>
						<path id="Path_83_" class="st3" d="M1.1-116h-2H1.1z"/>
					</g>
					<g id="Group_36_" transform="translate(807.000000, 138.000000)">
						<rect id="Rectangle_18_" x="-0.4" y="-115.5" class="st3" width="1" height="3"/>
						<path id="Shape_18_" class="st3" d="M0.1-115v2V-115L0.1-115z M1.1-116h-2v4h2V-116L1.1-116z"/>
					</g>
				</g>
				<g id="Layer_8_11_" transform="translate(2620.000000, 3134.000000)">
					<polygon id="Path_82_" class="st3" points="632.6,47.5 621.1,47.5 619.5,244.8 621.1,47.5 606.6,47.5 606.6,2.5 523.6,2.5 
						523.6,93.5 504.6,93.5 504.6,19.5 478.6,19.5 478.6,-116.5 390.6,-116.5 390.6,34.5 366.6,34.5 366.6,1.5 345.6,1.5 
						345.6,-73.5 318.6,-90.5 288.6,-70.5 288.6,34.5 269.6,34.5 269.6,101.5 240.6,101.5 240.6,40.5 214.6,36.5 214.6,2.5 
						195.6,2.5 195.6,47.5 174.6,47.5 174.6,95.5 153.6,95.5 153.6,63.5 121.6,63.5 121.6,-21.5 72.6,-21.5 72.6,12.5 53.6,12.5 
						53.6,84.5 28.6,74.5 -0.4,84.5 -0.4,251.5 640.2,251.5 					"/>
					<polyline id="Path_81_" class="st3" points="632.6,145.5 632.6,90.5 670.6,90.5 670.6,119.5 691.6,119.5 691.6,69.5 
						711.6,69.5 724.6,29.5 777.6,29.5 786.6,64.5 786.6,100.5 903.6,100.5 903.6,161.5 950.6,161.5 1017.6,161.5 1017.6,138.5 
						1071.6,138.5 1071.6,191.5 1113.6,191.5 1113.6,349.5 640.2,349.5 					"/>
				</g>
				<path id="path0_9_" class="st3" d="M2510.7,3120.9c-20.9,60.5-57.9,194.6-57.9,209.7v8.4h28.4c18,0,20.5,2.6,21.1,0
					c0.4-1.6,4.6-27.2,9.4-49.9c57.5-274.1,121.4-392.8,226.2-419.9c120.4-31.3,218.1,78,277.2,310.3c12.8,50.4,21.9,94,24.3,116.9
					c1.1,10.8,2.4,21.9,2.8,24.6l0.8,4.9v20.9l45.9,1.4l-7.8-84.3c-4.2-21-8.6-40.5-13.3-58.6c-63.2-245.2-177.2-374.5-316.1-358.8
					C2650.1,2857.9,2569.8,2949.4,2510.7,3120.9z"/>
			</g>
		</g>
	</g>
</g>
<rect x="468.8" y="416" class="st3" width="1.8" height="84.5"/>
<rect x="471.9" y="430.5" class="st3" width="1.8" height="1.5"/>
<rect x="469.1" y="376" class="st3" width="32.9" height="128.8"/>
</svg>
