<svg version="1" xmlns="http://www.w3.org/2000/svg" width="1573.333" height="1573.333" viewBox="0 0 1180.000000 1180.000000"><path d="M262 176.4c-11.1 4.1-22.6 15.7-29.8 30.1-1.6 3.3-6.9 18.1-11.7 33-12.4 38.3-20.8 64.2-27.5 85-6.9 21.2-23.5 72.7-29.2 90.5-2.2 6.9-5 15.6-6.3 19.5-1.3 3.8-4.6 14-7.3 22.5-2.8 8.5-9.7 30.1-15.5 48-5.8 17.9-14.9 46-20.2 62.5-5.3 16.5-12.3 38.1-15.5 48-3.2 9.9-10.4 32.2-16 49.5-5.6 17.3-12.8 39.6-16 49.5-11.9 36.8-18 55.7-26.5 82-4.8 14.8-11.8 36.4-15.5 48C.5 919.8 1 917.8 1.5 934.9c.3 13.6 2.7 23.9 8 34.4 11.1 22.1 29.8 34.8 51.1 34.8 11.1 0 14.2-.9 44.4-12.9 6.8-2.7 18.6-8.5 25.6-12.6 2.2-1.3 13.2-7.9 24.5-14.6 11.2-6.8 22.2-13.3 24.4-14.5 2.2-1.3 12.8-7.6 23.5-14 10.7-6.5 20.9-12.6 22.7-13.6 1.8-1 17.3-10.2 34.5-20.5s40.3-24.1 51.3-30.6 20.7-12.3 21.5-12.7c10.5-6.3 67.7-38.8 75.8-43.1 2.6-1.4 7.6-4.1 11.2-6.1 6.2-3.5 8.3-4.7 21-11.6 12.7-7 43.4-23.4 54.5-29.3 6.6-3.4 16.1-8.4 21-11 10-5.3 38.6-20 54-27.8 11.9-6 67.7-33.3 79-38.7 4.4-2.1 10.7-5.1 13.9-6.6 3.3-1.6 6.4-2.9 7-2.9 1.9 0 15.3 9.4 20.8 14.5 14.4 13.6 26 31.4 34.1 52.5 2 5.2 8.2 23.7 13.8 41 13 40.6 22.7 70.5 24.4 75.5.7 2.2 7.3 22.2 14.5 44.5 19.1 58.7 18.8 57.9 22.7 65 4.9 8.9 16 19.6 24.5 23.8 15.8 7.7 34.1 8.2 49.5 1.1 3.5-1.6 6.9-2.9 7.6-2.9 1.1 0 18.9-8.7 23.2-11.3 7.3-4.5 27.8-18.7 34.6-23.9 7-5.4 27.4-22.2 28.9-23.8.3-.3 4.3-3.9 9-8 33.4-29.4 76.5-75.5 106.6-114.1 3.2-4.2 6.8-8.8 7.9-10.4 1.1-1.5 2.9-3.9 4.1-5.4 7.6-9.7 26.6-37.8 35.1-52.1 20.2-33.8 34.4-65.4 40.7-91 4.5-18.3 5.1-23.4 5-41-.1-26.2-6.9-44.5-23.1-62.1-11.2-12-33.5-24-53.2-28.5-9.6-2.2-22.9-4.4-30.6-5.1-16.4-1.5-67.5-.7-77 1.1-1.1.2-5.1.7-8.8 1.1-3.7.3-7.6.8-8.6 1-1 .2-4.2.6-7.2 1-6 .7-8.9 1.1-16.9 2.5-3 .5-7.1 1.2-9 1.5-6 1-37.4 7.3-39 7.9-.8.3-2.8.7-4.5 1-1.6.2-7 1.4-12 2.6-4.9 1.2-9.7 2.3-10.5 2.5-1.5.3-18.8 4.9-30.5 8-3.3.9-8.2 2.3-11 3-11.2 3-19.5 5.4-27.9 8-4.8 1.5-9.1 2.3-9.6 1.8-.4-.4-1.4-3.3-2.2-6.3-.9-3-12.7-41.5-26.2-85.5-13.6-44-26-84.5-27.7-90-1.7-5.5-4.8-15.6-6.9-22.5-6.8-21.9-20.9-67.7-28.7-93-20.4-66.9-19.4-64.3-28.6-73.4-7.6-7.6-15.1-11.7-28.4-15.3-1.5-.4-88.5-.9-193.3-1-153.5-.2-191.2 0-194 1.1zm294.4 121c21.5 4.7 33.8 14.6 42.6 34 6 13.5 14.5 43.3 29.9 105.6 8.7 35.5 18.2 73.5 20.9 84.5 2.7 11 4.8 20.2 4.6 20.4-.5.5-396.4.5-396.9-.1-.2-.2.4-3.3 1.5-6.8 1-3.6 5.3-18.9 9.5-34 4.2-15.1 9.6-34.5 12-43 2.4-8.5 9.8-34.9 16.4-58.5 6.6-23.7 13.6-47.6 15.6-53.2 4.3-11.8 10.3-22.8 16.5-30.2 8.3-9.8 24.2-18.1 37.6-19.6 3.3-.4 6-.8 6.1-.9.1-.1 39.7-.1 88-.1 79.3.2 88.6.3 95.7 1.9zm517.1 259.9c1.1.2 4.3.8 7 1.1 10.3 1.5 22.9 6 31.3 11.3 12.2 7.7 17.5 16.7 17.6 29.8.1 14.4-2.5 23.9-11.5 41.5-6.9 13.4-22.1 36.5-32.1 48.5-14.2 17.1-18.9 22.8-22.3 26.5-2.2 2.4-6.2 6.9-9 10-8.2 9.1-53.2 53.8-64.5 64.1-20.6 18.8-35.7 32.1-44 39-3.6 3-6.7 5.7-7 6-.3.4-6.1 5.2-13 10.8-6.9 5.6-13.4 11-14.5 11.9-8.7 7.1-14.8 11.3-15.5 10.6-.4-.5-1.9-4.5-3.3-8.9-3.1-10-19.5-61.3-40.6-127.3-4.4-13.6-11.2-34.8-15.1-47.2-9.2-28.8-15.5-48.5-18.6-58-1.3-4.1-2.4-8-2.4-8.5 0-1.2-1-.8 27.5-11.5 31.2-11.6 80.1-27.9 95.2-31.5 1-.3 9.9-2.5 19.8-5s19.4-4.8 21-5.1c1.7-.3 5-1 7.5-1.5 4.7-1.1 19.7-3.6 26.5-4.5 2.2-.3 5.1-.7 6.5-1 1.4-.2 5.9-.7 10-1 4.1-.3 7.6-.7 7.8-.9.4-.4 33.6.3 35.7.8zM501.9 673.4c-.2.2-10.3 4.6-22.4 9.9-23.3 10.1-44.5 19.4-56 24.7-3.8 1.8-11.5 5.2-17 7.7s-12.9 5.8-16.5 7.5c-3.6 1.7-12.1 5.6-19 8.8-6.9 3.2-18.3 8.6-25.5 12-7.1 3.4-15.5 7.4-18.5 8.7-17.5 8-99.7 49.4-120 60.5-3.6 1.9-10.3 5.6-15 8.1-4.7 2.5-14.6 7.9-22 12s-13.6 7.4-13.7 7.3c-.7-.6 36-109.3 38.6-114.5 11.7-23.1 30.7-40.4 53.1-48.3 13-4.6 13-4.6 136.9-4.7 64.6-.1 117.2.1 117 .3z"/></svg>