<?xml version="1.0" encoding="UTF-8"?>
<svg width="826px" height="90px" viewBox="0 0 826 90" version="1.1" xmlns="http://www.w3.org/2000/svg" xmlns:xlink="http://www.w3.org/1999/xlink">
    <!-- Generator: Sketch 58 (84663) - https://sketch.com -->
    <title>ARCHHACKS</title>
    <desc>Created with Sketch.</desc>
    <g id="Page-1" stroke="none" stroke-width="1" fill="none" fill-rule="evenodd">
        <g id="ARCHHACKS" transform="translate(0.117188, 0.636719)" fill-rule="nonzero">
            <path d="M61.5234375,73.1835938 L31.2890625,73.1835938 L27.1289062,87.3632812 L0,87.3632812 L32.2851562,1.46484375 L61.2304688,1.46484375 L93.515625,87.3632812 L65.7421875,87.3632812 L61.5234375,73.1835938 Z M55.9570312,54.609375 L46.4648438,23.7304688 L37.03125,54.609375 L55.9570312,54.609375 Z M99.9632813,87.3632812 L99.9632813,1.46484375 L144.201563,1.46484375 C152.404729,1.46484375 158.674197,2.16796172 163.010156,3.57421875 C167.346115,4.98047578 170.842174,7.58787158 173.498438,11.3964844 C176.154701,15.2050972 177.482813,19.8437227 177.482813,25.3125 C177.482813,30.0781488 176.467198,34.1894358 174.435938,37.6464844 C172.404677,41.1035329 169.611737,43.9062393 166.057031,46.0546875 C163.791395,47.4218818 160.685957,48.554683 156.740625,49.453125 C159.904703,50.5078178 162.209368,51.5624947 163.654688,52.6171875 C164.584752,53.2868337 165.913396,54.6827953 167.640656,56.8051112 L167.902734,57.1289062 C169.660556,59.3123053 170.86618,61.0223834 171.51964,62.2591859 L184.455469,87.3632812 L154.455469,87.3632812 L140.275781,61.1132812 C138.478897,57.7148268 136.877351,55.5078176 135.471094,54.4921875 C133.557022,53.1640559 131.389075,52.5 128.967188,52.5 L126.623438,52.5 L126.623438,87.3632812 L99.9632813,87.3632812 Z M126.623438,36.2695312 L137.814844,36.2695312 C138.928912,36.2695312 141.001767,35.9389096 144.033465,35.277657 L144.846094,35.0976562 C146.603915,34.746092 148.039448,33.8476635 149.152734,32.4023438 C150.266021,30.957024 150.822656,29.2968844 150.822656,27.421875 C150.822656,24.6484236 149.943759,22.5195387 148.185938,21.0351562 C146.428116,19.5507738 143.127368,18.8085938 138.283594,18.8085938 L126.623438,18.8085938 L126.623438,36.2695312 Z M245.571094,52.265625 L268.832812,59.296875 C267.270305,65.8203451 264.809392,71.2695094 261.45,75.6445312 C258.090608,80.0195531 253.920728,83.3203014 248.940234,85.546875 C243.959741,87.7734486 237.621913,88.8867188 229.926562,88.8867188 C220.590578,88.8867188 212.963701,87.5293104 207.045703,84.8144531 C201.127705,82.0995958 196.020334,77.3242529 191.723437,70.4882812 C187.426541,63.6523096 185.278125,54.9023971 185.278125,44.2382812 C185.278125,30.0194602 189.057384,19.0918351 196.616016,11.4550781 C204.174647,3.81832119 214.8679,0 228.696094,0 C239.51646,0 248.022235,2.18747812 254.213672,6.5625 C260.405109,10.9375219 265.004672,17.6562047 268.0125,26.71875 L244.575,31.9335938 C243.754683,29.3163932 242.895317,27.4023498 241.996875,26.1914062 C240.512493,24.1601461 238.696104,22.5976617 236.547656,21.5039062 C234.399208,20.4101508 231.996888,19.8632812 229.340625,19.8632812 C223.32497,19.8632812 218.715641,22.285132 215.5125,27.1289062 C213.090613,30.7226742 211.879687,36.367149 211.879687,44.0625 C211.879687,53.5937977 213.324986,60.1269354 216.215625,63.6621094 C219.106264,67.1972833 223.168724,68.9648438 228.403125,68.9648438 C233.481275,68.9648438 237.319128,67.5390768 239.916797,64.6875 C242.514466,61.8359232 244.399213,57.6953396 245.571094,52.265625 Z M279.440625,1.46484375 L305.983594,1.46484375 L305.983594,31.5234375 L334.9875,31.5234375 L334.9875,1.46484375 L361.647656,1.46484375 L361.647656,87.3632812 L334.9875,87.3632812 L334.9875,52.6171875 L305.983594,52.6171875 L305.983594,87.3632812 L279.440625,87.3632812 L279.440625,1.46484375 Z" id="ARCH" fill="#BD4E67"></path>
            <path d="M377.001562,1.46484375 L403.544531,1.46484375 L403.544531,31.5234375 L432.548437,31.5234375 L432.548437,1.46484375 L459.208594,1.46484375 L459.208594,87.3632812 L432.548437,87.3632812 L432.548437,52.6171875 L403.544531,52.6171875 L403.544531,87.3632812 L377.001562,87.3632812 L377.001562,1.46484375 Z M527.296875,73.1835938 L497.0625,73.1835938 L492.902344,87.3632812 L465.773438,87.3632812 L498.058594,1.46484375 L527.003906,1.46484375 L559.289062,87.3632812 L531.515625,87.3632812 L527.296875,73.1835938 Z M521.730469,54.609375 L512.238281,23.7304688 L502.804688,54.609375 L521.730469,54.609375 Z M620.404688,52.265625 L643.666406,59.296875 C642.103898,65.8203451 639.642986,71.2695094 636.283594,75.6445312 C632.924202,80.0195531 628.754322,83.3203014 623.773828,85.546875 C618.793334,87.7734486 612.455507,88.8867188 604.760156,88.8867188 C595.424172,88.8867188 587.797295,87.5293104 581.879297,84.8144531 C575.961299,82.0995958 570.853928,77.3242529 566.557031,70.4882812 C562.260135,63.6523096 560.111719,54.9023971 560.111719,44.2382812 C560.111719,30.0194602 563.890978,19.0918351 571.449609,11.4550781 C579.008241,3.81832119 589.701493,0 603.529688,0 C614.350054,0 622.855828,2.18747812 629.047266,6.5625 C635.238703,10.9375219 639.838266,17.6562047 642.846094,26.71875 L619.408594,31.9335938 C618.588277,29.3163932 617.728911,27.4023498 616.830469,26.1914062 C615.346086,24.1601461 613.529698,22.5976617 611.38125,21.5039062 C609.232802,20.4101508 606.830482,19.8632812 604.174219,19.8632812 C598.158564,19.8632812 593.549235,22.285132 590.346094,27.1289062 C587.924207,30.7226742 586.713281,36.367149 586.713281,44.0625 C586.713281,53.5937977 588.158579,60.1269354 591.049219,63.6621094 C593.939858,67.1972833 598.002318,68.9648438 603.236719,68.9648438 C608.314869,68.9648438 612.152721,67.5390768 614.750391,64.6875 C617.34806,61.8359232 619.232807,57.6953396 620.404688,52.265625 Z M654.274219,1.46484375 L680.817188,1.46484375 L680.817188,33.9257812 L708.649219,1.46484375 L743.922656,1.46484375 L712.633594,33.8671875 L745.328906,87.3632812 L712.633594,87.3632812 L694.528125,52.03125 L680.817188,66.3867188 L680.817188,87.3632812 L654.274219,87.3632812 L654.274219,1.46484375 Z M747.089063,58.9453125 L772.342969,57.3632812 C772.889846,61.4648643 774.003117,64.589833 775.682813,66.7382812 C778.417201,70.2148611 782.323412,71.953125 787.401563,71.953125 C791.190644,71.953125 794.110537,71.064462 796.161328,69.2871094 C798.21212,67.5097567 799.2375,65.4492305 799.2375,63.1054688 C799.2375,60.8788951 798.260947,58.8867275 796.307813,57.1289062 C794.354678,55.371085 789.823473,53.7109453 782.714063,52.1484375 C771.073379,49.5312369 762.772681,46.0547092 757.811719,41.71875 C752.811694,37.3827908 750.311719,31.8555023 750.311719,25.1367188 C750.311719,20.7226342 751.591003,16.552754 754.149609,12.6269531 C756.708216,8.70115225 760.555834,5.61524561 765.692578,3.36914062 C770.829323,1.12303564 777.870268,0 786.815625,0 C797.792242,0 806.161299,2.04099521 811.923047,6.12304688 C817.684794,10.2050985 821.112495,16.6991742 822.20625,25.6054688 L797.186719,27.0703125 C796.522653,23.2031057 795.126183,20.3906338 792.997266,18.6328125 C790.868349,16.8749912 787.928925,15.9960938 784.178906,15.9960938 C781.092953,15.9960938 778.768758,16.6503841 777.20625,17.9589844 C775.643742,19.2675847 774.8625,20.8593656 774.8625,22.734375 C774.8625,24.0211461 775.433429,25.1867931 776.575302,26.2313465 L776.796094,26.4257812 C777.965454,27.4855144 780.638913,28.4768638 784.816544,29.3998553 L785.702344,29.5898438 C797.303964,32.0898562 805.614428,34.6191278 810.633984,37.1777344 C815.653541,39.7363409 819.305848,42.9101373 821.591016,46.6992187 C823.876183,50.4883002 825.01875,54.7265391 825.01875,59.4140625 C825.01875,64.9219025 823.495328,69.9999768 820.448438,74.6484375 C817.401547,79.2968982 813.143777,82.8222536 807.675,85.2246094 C802.206223,87.6269651 795.31176,88.828125 786.991406,88.828125 C772.381958,88.828125 762.264872,86.0156531 756.639844,80.390625 C751.014816,74.7655969 747.831254,67.6172309 747.089063,58.9453125 Z" id="HACKS" fill="#09051E"></path>
        </g>
    </g>
</svg>