<svg id="Layer_1" data-name="Layer 1" xmlns="http://www.w3.org/2000/svg" viewBox="0 0 1920 500"><defs><style>.cls-1{isolation:isolate;}.cls-2{fill:#bd4e67;}.cls-3{fill:#09051e;}</style></defs><title>Artboard 1</title><g class="cls-1"><g class="cls-1"><path class="cls-2" d="M8.45,427H41.68L111.52,53H168.4l65.9,374h33.23v20.27H194.87L176.29,343.6H78.85L59.7,447.23H8.45ZM82.79,321.07h89.55L129,75Z"/><path class="cls-2" d="M304.14,53H381.3c25.91,0,54.63,16.9,54.63,58.58V192.1c0,37.73-22,53.5-42.8,53.5v6.2c20.84.56,42.8,15.2,42.8,52.94V427h15.21v20.27H395.38V281.08c0-16.33-9-22.53-18.59-22.53h-31V447.23H304.14Zm41.68,185.3h31c8.45,0,18.59-5.63,18.59-22.53v-120c0-16.34-11.27-22.53-20.84-22.53H345.82Z"/><path class="cls-2" d="M496.2,357.12v-214c0-60.83,24.21-94.63,70.4-94.63,28.16,0,42.8,19.15,42.8,19.15l13.52-19.15,7.32,5.07L601.52,94.66c-5.64-11.83-15.77-25.35-34.92-25.35-16.34,0-28.73,15.21-28.73,47.31v267c0,32.67,11.27,47.87,33.8,47.87s33.23-15.77,33.23-47.31h20.27c0,43.93-26.47,67.59-58.57,67.59C533.37,451.74,496.2,432.59,496.2,357.12Z"/><path class="cls-2" d="M799.21,341.35H717V447.23H675.3V53H717V321.07h82.23V53h41.68V447.23H799.21Z"/></g><g class="cls-1"><path class="cls-3" d="M1038,341.35H955.77V447.23H914.09V53h41.68V321.07H1038V53h41.68V447.23H1038Z"/><path class="cls-3" d="M1116.29,427h33.23l69.83-374h56.89l65.9,374h33.23v20.27h-72.66L1284.13,343.6h-97.44l-19.15,103.63h-51.25Zm74.34-105.89h89.55L1236.81,75Z"/><path class="cls-3" d="M1400.71,357.12v-214c0-60.83,24.22-94.63,70.41-94.63,28.16,0,42.8,19.15,42.8,19.15l13.52-19.15,7.32,5.07L1506,94.66c-5.64-11.83-15.77-25.35-34.92-25.35-16.34,0-28.73,15.21-28.73,47.31v267c0,32.67,11.27,47.87,33.79,47.87s33.24-15.77,33.24-47.31h20.27c0,43.93-26.47,67.59-58.57,67.59C1437.89,451.74,1400.71,432.59,1400.71,357.12Z"/><path class="cls-3" d="M1709.36,53V192.1c0,33.79-18,54.06-42.81,54.06v6.2c24.78.56,42.81,18,42.81,52.38V427h15.21v20.27h-55.76V281.08c0-16.33-11.27-22.53-20.84-22.53H1621.5V447.23h-41.68V53h41.68v185.3h28.72c8.45,0,18.59-5.63,18.59-22.53V53Z"/><path class="cls-3" d="M1847.9,287.28c2.82,18.59,3.38,36,3.38,52.38,0,49-19.71,107.57-71,107.57h-27.6V427h27.6c19.71,0,31.54-24.22,31.54-64.21,0-22.53-2.82-45.62-6.2-68.15L1791,202.23a404.1,404.1,0,0,1-4.51-61.39c0-32.66,21.4-90.11,69.84-90.11,18,0,31.54,7.88,42.24,17.46l13-16.34,8.44,6.76L1892.4,94.66s-14.65-21.4-36.61-21.4c-14.65,0-32.67,15.2-32.67,41.67,0,24.22,5.63,51.82,10.14,80Z"/></g></g></svg>