<?xml version="1.0" encoding="UTF-8"?>
<svg width="682px" height="59px" viewBox="0 0 682 59" version="1.1" xmlns="http://www.w3.org/2000/svg" xmlns:xlink="http://www.w3.org/1999/xlink">
    <!-- Generator: Sketch 58 (84663) - https://sketch.com -->
    <title>Slice</title>
    <desc>Created with Sketch.</desc>
    <g id="Page-1" stroke="none" stroke-width="1" fill="none" fill-rule="evenodd">
        <path d="M0.39453125,1.05078125 L13.6660156,1.05078125 L13.6660156,33.4238281 L34.3789062,33.4238281 L34.3789062,44 L0.39453125,44 L0.39453125,1.05078125 Z M36.51875,22.5546875 C36.51875,15.5429337 38.4718555,10.0840039 42.378125,6.17773438 C46.2843945,2.27146484 51.7237933,0.318359375 58.6964844,0.318359375 C65.8449576,0.318359375 71.352715,2.2372855 75.2199219,6.07519531 C79.0871287,9.91310513 81.0207031,15.2890279 81.0207031,22.203125 C81.0207031,27.2226813 80.175985,31.3388511 78.4865234,34.5517578 C76.7970619,37.7646645 74.35568,40.2646395 71.1623047,42.0517578 C67.9689293,43.8388761 63.989477,44.7324219 59.2238281,44.7324219 C54.3800539,44.7324219 50.3713049,43.9609452 47.1974609,42.4179688 C44.0236169,40.8749923 41.4504005,38.4336104 39.4777344,35.09375 C37.5050683,31.7538896 36.51875,27.5742438 36.51875,22.5546875 Z M49.7902344,22.6132812 C49.7902344,26.9492404 50.5958904,30.0644437 52.2072266,31.9589844 C53.8185627,33.8535251 56.0109236,34.8007812 58.784375,34.8007812 C61.6359518,34.8007812 63.8429609,33.8730562 65.4054687,32.0175781 C66.9679766,30.1621001 67.7492187,26.8320553 67.7492187,22.0273438 C67.7492187,17.9843548 66.9337972,15.0302828 65.3029297,13.1650391 C63.6720622,11.2997954 61.4601702,10.3671875 58.6671875,10.3671875 C55.9913929,10.3671875 53.8429769,11.3144437 52.221875,13.2089844 C50.6007731,15.1035251 49.7902344,18.2382594 49.7902344,22.6132812 Z M115.562891,26.4511719 L127.19375,29.9667969 C126.412496,33.2285319 125.18204,35.9531141 123.502344,38.140625 C121.822648,40.3281359 119.737708,41.9785101 117.247461,43.0917969 C114.757214,44.2050837 111.5883,44.7617188 107.740625,44.7617188 C103.072633,44.7617188 99.2591945,44.0830146 96.3001953,42.7255859 C93.3411961,41.3681573 90.7875107,38.9804858 88.6390625,35.5625 C86.4906143,32.1445142 85.4164062,27.7695579 85.4164062,22.4375 C85.4164062,15.3280895 87.3060358,9.8642769 91.0853516,6.04589844 C94.8646673,2.22751997 100.211294,0.318359375 107.125391,0.318359375 C112.535574,0.318359375 116.788461,1.41209844 119.88418,3.59960938 C122.979898,5.78712031 125.27968,9.14646172 126.783594,13.6777344 L115.064844,16.2851562 C114.654685,14.976556 114.225002,14.0195343 113.775781,13.4140625 C113.03359,12.3984324 112.125396,11.6171902 111.051172,11.0703125 C109.976948,10.5234348 108.775788,10.25 107.447656,10.25 C104.439829,10.25 102.135164,11.4609254 100.533594,13.8828125 C99.3226502,15.6796965 98.7171875,18.5019339 98.7171875,22.3496094 C98.7171875,27.1152582 99.4398365,30.3818271 100.885156,32.1494141 C102.330476,33.917001 104.361706,34.8007812 106.978906,34.8007812 C109.517981,34.8007812 111.436908,34.0878978 112.735742,32.6621094 C114.034577,31.236321 114.97695,29.1660292 115.562891,26.4511719 Z M158.864844,36.9101562 L143.747656,36.9101562 L141.667578,44 L128.103125,44 L144.245703,1.05078125 L158.718359,1.05078125 L174.860937,44 L160.974219,44 L158.864844,36.9101562 Z M156.081641,27.6230469 L151.335547,12.1835938 L146.61875,27.6230469 L156.081641,27.6230469 Z M177.908984,1.05078125 L191.180469,1.05078125 L191.180469,33.4238281 L211.893359,33.4238281 L211.893359,44 L177.908984,44 L177.908984,1.05078125 Z M248.868359,1.05078125 L248.868359,16.0800781 L263.370313,16.0800781 L263.370313,1.05078125 L276.700391,1.05078125 L276.699875,14.7877813 L269,35 L276.699875,34.9997812 L276.700391,44 L263.370313,44 L263.370313,26.6269531 L248.868359,26.6269531 L248.868359,44 L235.596875,44 L235.596875,1.05078125 L248.868359,1.05078125 Z M342.094531,0.318359375 C347.504715,0.318359375 351.757602,1.41209844 354.85332,3.59960938 C357.949039,5.78712031 360.248821,9.14646172 361.752734,13.6777344 L350.033984,16.2851562 C349.623826,14.976556 349.194143,14.0195343 348.744922,13.4140625 C348.002731,12.3984324 347.094537,11.6171902 346.020312,11.0703125 C344.946088,10.5234348 343.744929,10.25 342.416797,10.25 C339.408969,10.25 337.104305,11.4609254 335.502734,13.8828125 C334.291791,15.6796965 333.686328,18.5019339 333.686328,22.3496094 C333.686328,27.1152582 334.408977,30.3818271 335.854297,32.1494141 C337.299617,33.917001 339.330846,34.8007812 341.948047,34.8007812 C344.487122,34.8007812 346.406048,34.0878978 347.704883,32.6621094 C349.003717,31.236321 349.946091,29.1660292 350.532031,26.4511719 L362.162891,29.9667969 C361.381637,33.2285319 360.15118,35.9531141 358.471484,38.140625 C356.791788,40.3281359 354.706848,41.9785101 352.216602,43.0917969 C349.726355,44.2050837 346.557441,44.7617188 342.709766,44.7617188 C338.041774,44.7617188 334.228335,44.0830146 331.269336,42.7255859 C328.310337,41.3681573 325.756651,38.9804858 323.608203,35.5625 C322.144599,33.2340391 321.179534,30.4614628 320.712997,27.2447295 L328.2937,17 L320.805311,16.9993105 C321.553867,12.4763536 323.303586,8.82523738 326.054492,6.04589844 C329.833808,2.22751997 335.180434,0.318359375 342.094531,0.318359375 Z M367.466797,1.05078125 L380.738281,1.05078125 L380.738281,17.28125 L394.654297,1.05078125 L412.291016,1.05078125 L396.646484,17.2519531 L412.994141,44 L396.646484,44 L387.59375,26.3339844 L380.738281,33.5117188 L380.738281,44 L367.466797,44 L367.466797,1.05078125 Z M435.086328,1.05078125 L447.478906,1.05078125 L463.650781,24.8105469 L463.650781,1.05078125 L476.160547,1.05078125 L476.160547,44 L463.650781,44 L447.566797,20.4160156 L447.566797,44 L435.086328,44 L435.086328,1.05078125 Z M484.30625,1.05078125 L497.607031,1.05078125 L497.607031,44 L484.30625,44 L484.30625,1.05078125 Z M527.520313,28.4433594 L527.520313,19.5078125 L548.028125,19.5078125 L548.028125,37.8183594 C544.102324,40.494154 540.630679,42.3154249 537.613086,43.2822266 C534.595493,44.2490283 531.016427,44.7324219 526.875781,44.7324219 C521.7781,44.7324219 517.622868,43.8632899 514.409961,42.125 C511.197054,40.3867101 508.706845,37.7988453 506.939258,34.3613281 C505.171671,30.9238109 504.287891,26.9785379 504.287891,22.5253906 C504.287891,17.8378672 505.254678,13.7607595 507.188281,10.2939453 C509.121885,6.8271311 511.953888,4.19532148 515.684375,2.3984375 C518.594546,1.01171182 522.510522,0.318359375 527.432422,0.318359375 C532.178539,0.318359375 535.728309,0.748042578 538.081836,1.60742188 C540.435363,2.46680117 542.388469,3.79979565 543.941211,5.60644531 C545.493953,7.41309497 546.660934,9.70311113 547.442188,12.4765625 L534.639453,14.7617188 C534.112107,13.1406169 533.218561,11.9003949 531.958789,11.0410156 C530.699017,10.1816363 529.092588,9.75195312 527.139453,9.75195312 C524.229282,9.75195312 521.90997,10.7626852 520.181445,12.7841797 C518.452921,14.8056742 517.588672,18.0038844 517.588672,22.3789062 C517.588672,27.027367 518.462687,30.3476463 520.210742,32.3398438 C521.958798,34.3320412 524.395297,35.328125 527.520313,35.328125 C529.004695,35.328125 530.420696,35.1132834 531.768359,34.6835938 C533.116022,34.2539041 534.658976,33.5214896 536.397266,32.4863281 L536.397266,28.4433594 L527.520313,28.4433594 Z M554.767578,1.05078125 L568.039063,1.05078125 L568.039063,16.0800781 L582.541016,16.0800781 L582.541016,1.05078125 L595.871094,1.05078125 L595.871094,44 L582.541016,44 L582.541016,26.6269531 L568.039063,26.6269531 L568.039063,44 L554.767578,44 L554.767578,1.05078125 Z M600.471875,1.05078125 L640.813672,1.05078125 L640.813672,11.65625 L627.278516,11.65625 L627.278516,44 L614.007031,44 L614.007031,11.65625 L600.471875,11.65625 L600.471875,1.05078125 Z M643.305078,29.7910156 L655.932031,29 C656.20547,31.0507915 656.762105,32.6132759 657.601953,33.6875 C658.969147,35.4257899 660.922253,36.2949219 663.461328,36.2949219 C665.355869,36.2949219 666.815815,35.8505904 667.841211,34.9619141 C668.866607,34.0732377 669.379297,33.0429746 669.379297,31.8710938 C669.379297,30.7578069 668.891021,29.7617231 667.914453,28.8828125 C667.010224,28.0690063 665.000855,27.2970733 661.886293,26.5669937 L661.117578,26.3925781 C655.297237,25.0839778 651.146887,23.345714 648.666406,21.1777344 C646.166394,19.0097548 644.916406,16.2461105 644.916406,12.8867188 C644.916406,10.6796765 645.556048,8.59473638 646.835352,6.63183594 C648.114655,4.6689355 650.038464,3.12598218 652.606836,2.00292969 C655.175208,0.879877197 658.695681,0.318359375 663.168359,0.318359375 C668.656668,0.318359375 672.841197,1.33885698 675.72207,3.37988281 C678.602944,5.42090864 680.316794,8.66794648 680.863672,13.1210938 L668.353906,13.8535156 C668.021873,11.9199122 667.323638,10.5136763 666.25918,9.63476562 C665.194721,8.75585498 663.725009,8.31640625 661.85,8.31640625 C660.307024,8.31640625 659.144926,8.64355142 658.363672,9.29785156 C657.582418,9.95215171 657.191797,10.7480422 657.191797,11.6855469 C657.191797,12.369144 657.514059,12.9843723 658.158594,13.53125 C658.721097,14.0410182 659.979679,14.5191392 661.934372,14.9656245 L662.611719,15.1132812 C668.412529,16.3632875 672.567761,17.6279233 675.077539,18.9072266 C677.587317,20.1865298 679.413471,21.773428 680.556055,23.6679687 C681.698639,25.5625095 682.269922,27.6816289 682.269922,30.0253906 C682.269922,32.7793106 681.508211,35.3183478 679.984766,37.6425781 C678.461321,39.9668085 676.332436,41.7294862 673.598047,42.9306641 C670.863658,44.1318419 667.416427,44.7324219 663.25625,44.7324219 C655.951526,44.7324219 650.892983,43.3261859 648.080469,40.5136719 C645.267955,37.7011578 643.676174,34.1269748 643.305078,29.7910156 Z" id="LOCALHCKNIGHTS" fill="#000000" fill-rule="nonzero"></path>
        <polygon id="Rectangle" fill="#FFD400" points="288.318878 1 312.25 1 302.660714 21.6344682 309.380102 21.6344682 316 21.6344682 288.318878 59 289.420918 31.1939826 277 31.1939826"></polygon>
    </g>
</svg>