<svg id="MLH_Logo" data-name="MLH Logo" xmlns="http://www.w3.org/2000/svg" viewBox="0 0 361.33 162"><defs><style>.cls-1{fill:#353535;}</style></defs><title>Artboard 1</title><g id="MLH_Logo-2" data-name="MLH Logo"><g id="Major_League_Hacking" data-name="Major League Hacking"><path class="cls-1" d="M26.23,135.17a3,3,0,0,1,1.6,1.6,2.87,2.87,0,0,1,.25,1.17v14.56a.49.49,0,0,1-.49.49H24a.43.43,0,0,1-.33-.14.5.5,0,0,1-.13-.35V139.32H20.64v13.19a.5.5,0,0,1-.13.35.43.43,0,0,1-.33.14H16.92a.49.49,0,0,1-.49-.49V139.32H13.54v13.19a.43.43,0,0,1-.49.49H9.49a.43.43,0,0,1-.49-.49V135.42a.43.43,0,0,1,.49-.49H25.05A2.88,2.88,0,0,1,26.23,135.17Z"/><path class="cls-1" d="M44.28,134.93a2.9,2.9,0,0,1,1.18.24,3,3,0,0,1,1.6,1.6,2.87,2.87,0,0,1,.25,1.17v14.56a.48.48,0,0,1-.49.49H43.23a.49.49,0,0,1-.49-.49v-4.62a.5.5,0,0,0-.13-.35.44.44,0,0,0-.34-.14H37.16a.49.49,0,0,0-.49.49v4.62a.43.43,0,0,1-.49.49H32.62a.43.43,0,0,1-.49-.49V137.95a3,3,0,0,1,.23-1.17,2.82,2.82,0,0,1,.65-1,3.26,3.26,0,0,1,1-.65,2.89,2.89,0,0,1,1.17-.24Zm-1.55,8.6V139H36.67v4.54Z"/><path class="cls-1" d="M63.55,135.07a.47.47,0,0,1,.14.35V150a2.9,2.9,0,0,1-.24,1.17,3.28,3.28,0,0,1-.65,1,2.83,2.83,0,0,1-1,.65,3,3,0,0,1-1.17.23H52.91a3,3,0,0,1-1.17-.23A3,3,0,0,1,49.89,150v-5.52a.43.43,0,0,1,.49-.49h3.56a.43.43,0,0,1,.49.49v3.69a.43.43,0,0,0,.14.34.5.5,0,0,0,.35.13h3.74a.5.5,0,0,0,.35-.13.43.43,0,0,0,.14-.34V135.42a.5.5,0,0,1,.13-.35.43.43,0,0,1,.34-.14h3.59A.48.48,0,0,1,63.55,135.07Z"/><path class="cls-1" d="M79.88,134.93a2.88,2.88,0,0,1,1.17.24,3,3,0,0,1,1.6,1.6,2.87,2.87,0,0,1,.25,1.17v12a2.87,2.87,0,0,1-.25,1.17,3.27,3.27,0,0,1-.64,1,2.84,2.84,0,0,1-1,.65,3,3,0,0,1-1.17.23H70.74a3,3,0,0,1-1.17-.23A3,3,0,0,1,67.72,150v-12a3,3,0,0,1,.23-1.17,2.85,2.85,0,0,1,.64-1,3.3,3.3,0,0,1,1-.65,2.89,2.89,0,0,1,1.17-.24Zm-1.55,4.39H72.27v9.29h6.07Z"/><path class="cls-1" d="M102.7,152.59a.27.27,0,0,1,0,.3.32.32,0,0,1-.28.12h-4.1a.84.84,0,0,1-.41-.12.79.79,0,0,1-.31-.3l-2.74-4.9a.18.18,0,0,0-.18-.1H91.62a.11.11,0,0,0-.13.13v4.8A.43.43,0,0,1,91,153H87.44a.43.43,0,0,1-.49-.49V135.42a.43.43,0,0,1,.49-.49H99.11a2.89,2.89,0,0,1,1.17.24,3.05,3.05,0,0,1,1.6,1.6,2.9,2.9,0,0,1,.24,1.17v6.79a2.9,2.9,0,0,1-.58,1.77,2.87,2.87,0,0,1-1.49,1.07l-.08,0q-.18.05-.08.15l0,.05Zm-5.14-13.45H91.34v4.39h6.22Z"/><path class="cls-1" d="M127,148.61a.44.44,0,0,1,.34.14.5.5,0,0,1,.13.35v3.41a.5.5,0,0,1-.13.35.44.44,0,0,1-.34.14H115.89a.43.43,0,0,1-.49-.49V135.42a.43.43,0,0,1,.49-.49h3.56a.43.43,0,0,1,.49.49v12.73a.43.43,0,0,0,.14.34.5.5,0,0,0,.35.13Z"/><path class="cls-1" d="M143.7,135.07a.48.48,0,0,1,.14.35v3.25a.44.44,0,0,1-.14.34.5.5,0,0,1-.35.13H134.7a.11.11,0,0,0-.13.13v2.81c0,.07,0,.1.13.1h7.38a.43.43,0,0,1,.33.14.5.5,0,0,1,.13.35v2.58a.5.5,0,0,1-.13.35.43.43,0,0,1-.33.14H134.7a.11.11,0,0,0-.13.13v2.79a.11.11,0,0,0,.13.13h8.65a.48.48,0,0,1,.49.49v3.23a.48.48,0,0,1-.49.49H130.52a.43.43,0,0,1-.49-.49V135.42a.49.49,0,0,1,.49-.49h12.83A.48.48,0,0,1,143.7,135.07Z"/><path class="cls-1" d="M160.08,134.93a2.9,2.9,0,0,1,1.18.24,3,3,0,0,1,1.6,1.6,2.87,2.87,0,0,1,.25,1.17v14.56a.48.48,0,0,1-.49.49H159a.49.49,0,0,1-.49-.49v-4.62a.5.5,0,0,0-.13-.35.44.44,0,0,0-.34-.14H153a.49.49,0,0,0-.49.49v4.62a.43.43,0,0,1-.49.49h-3.56a.43.43,0,0,1-.49-.49V137.95a3,3,0,0,1,.23-1.17,2.82,2.82,0,0,1,.65-1,3.26,3.26,0,0,1,1-.65,2.89,2.89,0,0,1,1.17-.24Zm-1.55,8.6V139h-6.07v4.54Z"/><path class="cls-1" d="M182.16,143.28a.48.48,0,0,1,.14.35V150a2.87,2.87,0,0,1-.25,1.17,3.27,3.27,0,0,1-.64,1,2.84,2.84,0,0,1-1,.65,3,3,0,0,1-1.17.23h-9.14a3,3,0,0,1-1.17-.23,3,3,0,0,1-1.85-2.79v-12a3,3,0,0,1,.23-1.17,2.85,2.85,0,0,1,.64-1,3.3,3.3,0,0,1,1-.65,2.89,2.89,0,0,1,1.17-.24H180.8a.49.49,0,0,1,.49.49v3.41a.49.49,0,0,1-.49.49h-8.65a.5.5,0,0,0-.35.13.43.43,0,0,0-.14.34v8.36a.43.43,0,0,0,.14.34.5.5,0,0,0,.35.13h5.11a.44.44,0,0,0,.46-.46v-4.52a.48.48,0,0,1,.49-.49h3.59A.47.47,0,0,1,182.16,143.28Z"/><path class="cls-1" d="M201.21,135.07a.48.48,0,0,1,.14.35V150a2.87,2.87,0,0,1-.25,1.17,3.27,3.27,0,0,1-.64,1,2.83,2.83,0,0,1-1,.65,3,3,0,0,1-1.18.23h-9.14a3,3,0,0,1-1.17-.23,3,3,0,0,1-1.61-1.61,3,3,0,0,1-.23-1.17V135.42a.43.43,0,0,1,.49-.49h3.56a.43.43,0,0,1,.49.49v12.73a.43.43,0,0,0,.14.34.5.5,0,0,0,.35.13h5.11a.46.46,0,0,0,.34-.13.45.45,0,0,0,.13-.34V135.42a.49.49,0,0,1,.49-.49h3.59A.48.48,0,0,1,201.21,135.07Z"/><path class="cls-1" d="M219.1,135.07a.48.48,0,0,1,.14.35v3.25a.44.44,0,0,1-.14.34.5.5,0,0,1-.35.13H210.1a.11.11,0,0,0-.13.13v2.81c0,.07,0,.1.13.1h7.38a.43.43,0,0,1,.33.14.5.5,0,0,1,.13.35v2.58a.5.5,0,0,1-.13.35.43.43,0,0,1-.33.14H210.1a.11.11,0,0,0-.13.13v2.79a.11.11,0,0,0,.13.13h8.65a.48.48,0,0,1,.49.49v3.23a.48.48,0,0,1-.49.49H205.92a.43.43,0,0,1-.49-.49V135.42a.49.49,0,0,1,.49-.49h12.83A.48.48,0,0,1,219.1,135.07Z"/><path class="cls-1" d="M246.8,134.93a.48.48,0,0,1,.49.49v17.09a.48.48,0,0,1-.49.49h-3.59a.49.49,0,0,1-.49-.49v-6a.44.44,0,0,0-.46-.46h-5.11a.5.5,0,0,0-.35.13.43.43,0,0,0-.14.34v6a.43.43,0,0,1-.49.49h-3.56a.43.43,0,0,1-.49-.49V135.42a.43.43,0,0,1,.49-.49h3.56a.43.43,0,0,1,.49.49v5.78a.43.43,0,0,0,.49.49h5.11a.43.43,0,0,0,.34-.14.5.5,0,0,0,.13-.35v-5.78a.49.49,0,0,1,.49-.49Z"/><path class="cls-1" d="M263.53,134.93a2.9,2.9,0,0,1,1.18.24,3,3,0,0,1,1.6,1.6,2.87,2.87,0,0,1,.25,1.17v14.56a.48.48,0,0,1-.49.49h-3.59a.49.49,0,0,1-.49-.49v-4.62a.5.5,0,0,0-.13-.35.44.44,0,0,0-.34-.14H256.4a.49.49,0,0,0-.49.49v4.62a.43.43,0,0,1-.49.49h-3.56a.43.43,0,0,1-.49-.49V137.95a3,3,0,0,1,.23-1.17,2.82,2.82,0,0,1,.65-1,3.26,3.26,0,0,1,1-.65,2.89,2.89,0,0,1,1.17-.24Zm-1.55,8.6V139h-6.07v4.54Z"/><path class="cls-1" d="M275.23,139.45a.43.43,0,0,0-.14.34v8.36a.43.43,0,0,0,.14.34.5.5,0,0,0,.35.13h8.29a.48.48,0,0,1,.49.49v3.41a.48.48,0,0,1-.49.49h-10.3a3,3,0,0,1-1.17-.23,3,3,0,0,1-1-.65,3,3,0,0,1-.64-1,3,3,0,0,1-.23-1.17v-12a3,3,0,0,1,.23-1.17,2.82,2.82,0,0,1,.64-1,3.3,3.3,0,0,1,1-.65,2.88,2.88,0,0,1,1.17-.24h10.3a.48.48,0,0,1,.49.49v3.41a.48.48,0,0,1-.49.49h-8.29A.5.5,0,0,0,275.23,139.45Z"/><path class="cls-1" d="M298.74,142.54a.14.14,0,0,0,0,.18l6,9.86a.27.27,0,0,1,0,.3.32.32,0,0,1-.28.12h-4.29a.84.84,0,0,1-.41-.12.79.79,0,0,1-.31-.3l-3.9-7c-.05-.09-.1-.09-.13,0l-2.14,2.35a1,1,0,0,0-.22.37,1.3,1.3,0,0,0-.09.45v3.82a.43.43,0,0,1-.49.49H289a.43.43,0,0,1-.49-.49V135.42a.43.43,0,0,1,.49-.49h3.56a.43.43,0,0,1,.49.49v7.67l6.66-7.8A1,1,0,0,1,300,135a1.09,1.09,0,0,1,.44-.1h4.29c.14,0,.22,0,.25.1s0,.16-.09.26Z"/><path class="cls-1" d="M312.65,152.51a.43.43,0,0,1-.49.49H308.6a.43.43,0,0,1-.49-.49V135.42a.43.43,0,0,1,.49-.49h3.56a.43.43,0,0,1,.49.49Z"/><path class="cls-1" d="M330,135.17a3.05,3.05,0,0,1,1.6,1.6,2.9,2.9,0,0,1,.24,1.17v14.56a.48.48,0,0,1-.49.49H327.8a.43.43,0,0,1-.34-.14.5.5,0,0,1-.13-.35V139.78a.43.43,0,0,0-.14-.34.5.5,0,0,0-.35-.13h-5.11a.5.5,0,0,0-.35.13.43.43,0,0,0-.14.34v12.73a.43.43,0,0,1-.49.49h-3.56a.43.43,0,0,1-.49-.49V135.42a.43.43,0,0,1,.49-.49h11.67A2.89,2.89,0,0,1,330,135.17Z"/><path class="cls-1" d="M350.94,143.28a.48.48,0,0,1,.14.35V150a2.87,2.87,0,0,1-.25,1.17,3.27,3.27,0,0,1-.64,1,2.84,2.84,0,0,1-1,.65,3,3,0,0,1-1.17.23h-9.14a3,3,0,0,1-1.17-.23A3,3,0,0,1,335.9,150v-12a3,3,0,0,1,.23-1.17,2.85,2.85,0,0,1,.64-1,3.3,3.3,0,0,1,1-.65,2.89,2.89,0,0,1,1.17-.24h10.66a.49.49,0,0,1,.49.49v3.41a.49.49,0,0,1-.49.49h-8.65a.5.5,0,0,0-.35.13.43.43,0,0,0-.14.34v8.36a.43.43,0,0,0,.14.34.5.5,0,0,0,.35.13H346a.44.44,0,0,0,.46-.46v-4.52a.48.48,0,0,1,.49-.49h3.59A.47.47,0,0,1,350.94,143.28Z"/></g><g id="M"><path class="cls-1" d="M117.89,10.55A19.15,19.15,0,0,1,128,20.64,18.11,18.11,0,0,1,129.55,28v94.8a3.06,3.06,0,0,1-3.1,3.09H103.78a2.73,2.73,0,0,1-2.12-.9,3.13,3.13,0,0,1-.82-2.2V36.67H82.57v86.17a3.14,3.14,0,0,1-.82,2.2,2.74,2.74,0,0,1-2.12.9H59.08a3.06,3.06,0,0,1-3.1-3.09V36.67H37.71v86.17q0,3.09-3.1,3.09H12.1q-3.1,0-3.1-3.09V12.09Q9,9,12.1,9h98.36A18.22,18.22,0,0,1,117.89,10.55Z"/><path class="cls-1" d="M117.89,10.55A19.15,19.15,0,0,1,128,20.64,18.11,18.11,0,0,1,129.55,28v8.45l-28.71.18H37.71L9,36.49V12.09Q9,9,12.1,9h98.36A18.22,18.22,0,0,1,117.89,10.55Z"/></g><g id="L"><path class="cls-1" d="M228.42,97.54a3,3,0,0,1,2.25.92,3.18,3.18,0,0,1,.86,2.26v22.05a3.17,3.17,0,0,1-.86,2.26,2.94,2.94,0,0,1-2.25.92H150.76q-3.28,0-3.28-3.17V12.17q0-3.17,3.28-3.17H174.6q3.28,0,3.28,3.17V94.54a2.75,2.75,0,0,0,1,2.17,3.39,3.39,0,0,0,2.33.84Z"/><path class="cls-1" d="M177.64,125.95H150.75q-3.28,0-3.28-3.17V12.17q0-3.17,3.28-3.17h23.79q3.27,0,3.28,3.17V94.54C177.82,95.43,177.64,125.95,177.64,125.95Z"/></g><g id="H"><path class="cls-1" d="M347.78,9a3.26,3.26,0,0,1,2.35.92,3,3,0,0,1,1,2.26V123.09a3,3,0,0,1-1,2.26,3.25,3.25,0,0,1-2.35.92H323.63a3.24,3.24,0,0,1-2.35-.92,3,3,0,0,1-1-2.26V84.39a2.9,2.9,0,0,0-.87-2.18,3.13,3.13,0,0,0-2.26-.84H283.31a3.43,3.43,0,0,0-2.35.84,2.76,2.76,0,0,0-1,2.18v38.7q0,3.18-3.3,3.18h-24q-3.3,0-3.3-3.18V12.18q0-3.18,3.3-3.18h24q3.3,0,3.3,3.18V49.71q0,3.18,3.3,3.18H317.2a3,3,0,0,0,2.26-.92,3.17,3.17,0,0,0,.87-2.26V12.18a3,3,0,0,1,1-2.26A3.25,3.25,0,0,1,323.63,9Z"/><path class="cls-1" d="M280,84.39v38.7q0,3.18-3.3,3.18h-24q-3.3,0-3.3-3.18V12.18q0-3.18,3.3-3.18h24q3.3,0,3.3,3.18V84.39Z"/><path class="cls-1" d="M347.78,9a3.26,3.26,0,0,1,2.35.92,3,3,0,0,1,1,2.26V123.09a3,3,0,0,1-1,2.26,3.25,3.25,0,0,1-2.35.92H323.63a3.24,3.24,0,0,1-2.35-.92,3,3,0,0,1-1-2.26V12.18a3,3,0,0,1,1-2.26A3.25,3.25,0,0,1,323.63,9Z"/></g></g></svg>