<?xml version="1.0" encoding="UTF-8"?>
<svg viewBox="0 0 1915 643" version="1.1" xmlns="http://www.w3.org/2000/svg" xmlns:xlink="http://www.w3.org/1999/xlink">
    <!-- Generator: Sketch 58 (84663) - https://sketch.com -->
    <title>skyline tracing</title>
    <desc>Created with Sketch.</desc>
    <g id="Page-1" stroke="none" stroke-width="1" fill="none" fill-rule="evenodd">
        <g id="skyline-tracing" fill="#FFF" fill-rule="nonzero">
            <path d="M937.9,1.27960372 C1076.8,-14.4203963 1190.8,114.879604 1254,360.079604 C1257.33362,372.917599 1260.51632,386.459907 1263.58378,400.74221 L1263.58398,325.39477 L1299.30955,338.958225 L1299.30955,454.5 L1305.6,454.5 L1305.6,528.5 L1324.6,528.5 L1324.6,437.5 L1407.6,437.5 L1407.6,482.5 L1433.6,482.5 L1435.202,525.5 L1471.6,525.5 L1471.6,554.5 L1492.6,554.5 L1492.6,504.5 L1505.7951,504.5 L1513.43211,464.5 L1566.71575,464.5 L1581.04201,504.5 L1587.6,504.5 L1587.6,535.5 L1704.6,535.5 L1704.6,596.5 L1818.6,596.5 L1818.6,573.5 L1872.6,573.5 L1872.6,626.5 L1915,626.5 L1915,644 L0,644 L0,525.5 L60.1,525 L60.1,563 L141.1,563 L141.1,582 L198.1,582 L198.1,566 L258.1,566 L258.1,523 L350.1,523 L350.1,559 L367.1,559 L386.1,542 L427.1,542 L441.1,559 L466.1,559 L466.1,519 L521.1,519 L521.1,502 L567.1,502 L567.1,436 L612.1,436 L612.1,509.5 C611.119434,519.092494 612.859143,521.435791 617.319125,516.52989 C621.779107,511.623989 625.308518,500.280693 627.907356,482.5 L639.335349,481.781042 C643.072757,455.565941 677.164393,332.808994 696.9,275.679604 C756,104.179604 836.3,12.6796037 937.9,1.27960372 Z M1201.3,334.279604 C1142.2,101.979604 1044.5,-7.32039628 924.1,23.9796037 C819.3,51.0796037 755.4,169.779604 697.9,443.879604 C695.350696,455.935687 692.970636,468.80978 691.239211,478.471991 L730.1,476 L730.1,384 L781.1,384 L781.1,422 L800.1,422 L800.1,519.5 L829.6,509.5 L854.6,519.5 L854.6,447.5 L873.6,447.5 L873.6,413.5 L922.6,413.5 L922.6,498.5 L954.6,498.5 L954.6,530.5 L975.6,530.5 L975.6,482.5 L996.6,482.5 L996.6,437.5 L1015.6,437.5 L1015.6,471.5 L1041.6,475.5 L1041.6,536.5 L1070.6,536.5 L1070.6,469.5 L1089.6,469.5 L1089.6,364.5 L1119.6,344.5 L1146.6,361.5 L1146.6,436.5 L1167.6,436.5 L1167.6,469.5 L1227.75902,470.75435 C1227.17276,465.86628 1226.341,458.454874 1225.6,451.179604 C1223.2,428.279604 1214.1,384.679604 1201.3,334.279604 Z" id="Path_88_-2"></path>
        </g>
    </g>
</svg>